<?xml version="1.0" encoding="UTF-8" standalone="no"?><!DOCTYPE svg PUBLIC "-//W3C//DTD SVG 1.1//EN" "http://www.w3.org/Graphics/SVG/1.1/DTD/svg11.dtd"><svg width="100%" height="100%" viewBox="0 0 113 113" version="1.1" xmlns="http://www.w3.org/2000/svg" xmlns:xlink="http://www.w3.org/1999/xlink" xml:space="preserve" xmlns:serif="http://www.serif.com/" style="fill-rule:evenodd;clip-rule:evenodd;stroke-linejoin:round;stroke-miterlimit:2;"><path d="M112.384,56.192c0,31.034 -25.158,56.192 -56.192,56.192c-31.034,0 -56.192,-25.158 -56.192,-56.192c0,-31.034 25.158,-56.192 56.192,-56.192c31.034,0 56.192,25.158 56.192,56.192Zm-71.443,-23.996l-22.21,-0l-0,47.108l22.834,0c2.11,0 4.172,-0.266 6.156,-0.792c2.008,-0.528 3.8,-1.339 5.36,-2.443c1.548,-1.095 2.804,-2.516 3.726,-4.266c0.913,-1.729 1.371,-3.787 1.371,-6.176c0,-2.947 -0.7,-5.461 -2.131,-7.562c-1.423,-2.086 -3.57,-3.553 -6.471,-4.387c2.13,-1.007 3.723,-2.304 4.808,-3.885c1.076,-1.584 1.614,-3.566 1.614,-5.936c-0,-2.193 -0.36,-4.048 -1.078,-5.527c-0.735,-1.505 -1.762,-2.696 -3.074,-3.593c-1.333,-0.899 -2.911,-1.552 -4.759,-1.943c-1.859,-0.404 -3.893,-0.598 -6.146,-0.598Zm-0.768,39.086l-11.069,0l0,-12.972l11.277,-0c2.232,-0 4.047,0.513 5.408,1.544c1.359,1.048 2.042,2.771 2.042,5.199c0,1.24 -0.201,2.263 -0.62,3.053c-0.418,0.797 -0.992,1.424 -1.686,1.88c-0.693,0.475 -1.516,0.797 -2.444,0.999c-0.914,0.207 -1.884,0.297 -2.908,0.297Zm-0.573,-20.055l-10.496,0l0,-11.007l9.704,0c0.918,0 1.813,0.064 2.667,0.232c0.87,0.15 1.62,0.427 2.284,0.829c0.669,0.383 1.199,0.934 1.598,1.638c0.387,0.702 0.579,1.607 0.579,2.704c-0,1.975 -0.579,3.414 -1.772,4.284c-1.205,0.886 -2.727,1.32 -4.564,1.32Zm33.364,19.898c-1.407,-1.37 -2.32,-3.924 -2.32,-6.621l24.615,-0c0.176,-2.645 -0.039,-5.175 -0.652,-7.592c-0.618,-2.425 -1.607,-4.585 -2.998,-6.474c-1.39,-1.894 -3.16,-3.407 -5.319,-4.522c-2.166,-1.132 -4.694,-1.687 -7.58,-1.687c-2.613,0 -4.973,0.465 -7.114,1.389c-2.14,0.928 -3.977,2.196 -5.526,3.803c-1.547,1.6 -2.723,3.508 -3.573,5.716c-0.834,2.203 -1.26,4.585 -1.26,7.136c0,2.638 0.411,5.071 1.225,7.271c0.822,2.21 1.977,4.093 3.464,5.685c1.525,1.584 3.339,2.8 5.508,3.667c2.171,0.857 4.59,1.292 7.276,1.292c3.855,-0 7.164,-0.883 9.877,-2.655c2.745,-1.765 4.757,-4.696 6.083,-8.801l-8.25,0c-0.32,1.055 -1.147,2.071 -2.504,3.022c-1.37,0.954 -3.003,1.431 -4.893,1.431c-2.627,0 -4.656,-0.69 -6.059,-2.06Zm10.765,-17.922c1.118,1.242 1.935,3.009 2.159,5.396l-15.244,0c0.044,-0.663 0.187,-1.418 0.428,-2.246c0.24,-0.853 0.652,-1.649 1.256,-2.404c0.609,-0.743 1.403,-1.373 2.373,-1.88c0.992,-0.513 2.231,-0.765 3.728,-0.765c2.301,0 4.187,0.667 5.3,1.899Zm4.096,-17.849l-19.097,0l0,4.651l19.097,-0l-0,-4.651Z" style="fill:#ff1ac6;"/></svg>