<?xml version="1.0" encoding="UTF-8" standalone="no"?><!DOCTYPE svg PUBLIC "-//W3C//DTD SVG 1.1//EN" "http://www.w3.org/Graphics/SVG/1.1/DTD/svg11.dtd"><svg width="100%" height="100%" viewBox="0 0 127 127" version="1.1" xmlns="http://www.w3.org/2000/svg" xmlns:xlink="http://www.w3.org/1999/xlink" xml:space="preserve" xmlns:serif="http://www.serif.com/" style="fill-rule:evenodd;clip-rule:evenodd;stroke-linejoin:round;stroke-miterlimit:2;"><path d="M126.612,63.306c0,34.963 -28.343,63.306 -63.306,63.306c-34.963,0 -63.306,-28.343 -63.306,-63.306c-0,-34.963 28.343,-63.306 63.306,-63.306c34.963,0 63.306,28.343 63.306,63.306" style="fill:#5336aa;"/><path d="M45.259,80.307c1.153,-0 2.247,-0.102 3.276,-0.335c1.045,-0.228 1.973,-0.59 2.754,-1.125c0.781,-0.514 1.428,-1.221 1.899,-2.118c0.472,-0.89 0.699,-2.043 0.699,-3.44c-0,-2.736 -0.77,-4.676 -2.301,-5.857c-1.533,-1.162 -3.578,-1.74 -6.093,-1.74l-12.704,-0l-0,14.615l12.47,-0Zm-0.646,-22.594c2.07,-0 3.785,-0.49 5.143,-1.488c1.344,-0.98 1.995,-2.602 1.995,-4.826c0,-1.236 -0.216,-2.256 -0.651,-3.046c-0.451,-0.794 -1.047,-1.414 -1.801,-1.846c-0.748,-0.453 -1.593,-0.764 -2.573,-0.933c-0.962,-0.19 -1.971,-0.262 -3.005,-0.262l-10.932,0l-0,12.401l11.824,-0Zm1.511,-21.441c2.539,-0 4.83,0.219 6.924,0.673c2.083,0.441 3.86,1.177 5.361,2.189c1.478,1.011 2.636,2.353 3.464,4.048c0.809,1.667 1.214,3.757 1.214,6.228c0,2.67 -0.605,4.902 -1.818,6.687c-1.222,1.782 -3.017,3.242 -5.416,4.377c3.267,0.939 5.686,2.592 7.29,4.942c1.612,2.367 2.401,5.2 2.401,8.52c-0,2.691 -0.516,5.009 -1.545,6.957c-1.039,1.972 -2.454,3.572 -4.198,4.807c-1.757,1.243 -3.777,2.157 -6.038,2.751c-2.236,0.594 -4.559,0.893 -6.936,0.893l-25.725,0l-0,-53.072l25.022,-0Z" style="fill:#fff;fill-rule:nonzero;"/><path d="M94.329,59.939c-1.254,-1.388 -3.379,-2.14 -5.971,-2.14c-1.686,0 -3.082,0.284 -4.2,0.862c-1.093,0.572 -1.987,1.281 -2.673,2.118c-0.681,0.851 -1.145,1.747 -1.415,2.709c-0.271,0.932 -0.432,1.783 -0.482,2.53l17.174,-0c-0.252,-2.69 -1.173,-4.68 -2.433,-6.079m-12.127,20.191c1.58,1.543 3.866,2.32 6.825,2.32c2.129,0 3.97,-0.537 5.513,-1.612c1.529,-1.071 2.46,-2.216 2.82,-3.404l9.296,-0c-1.494,4.624 -3.761,7.927 -6.853,9.915c-3.057,1.996 -6.785,2.991 -11.128,2.991c-3.027,-0 -5.751,-0.49 -8.197,-1.456c-2.444,-0.976 -4.488,-2.346 -6.206,-4.131c-1.675,-1.793 -2.976,-3.915 -3.902,-6.405c-0.918,-2.478 -1.38,-5.219 -1.38,-8.191c-0,-2.874 0.48,-5.558 1.419,-8.04c0.958,-2.487 2.283,-4.636 4.025,-6.439c1.746,-1.811 3.815,-3.239 6.227,-4.285c2.411,-1.041 5.07,-1.564 8.014,-1.564c3.251,-0 6.099,0.625 8.539,1.901c2.433,1.255 4.427,2.959 5.993,5.093c1.567,2.128 2.681,4.562 3.377,7.294c0.692,2.724 0.934,5.574 0.735,8.553l-27.731,0c-0,3.039 1.028,5.916 2.614,7.46" style="fill:#fff;fill-rule:nonzero;"/><rect x="77.43" y="39.83" width="21.514" height="5.239" style="fill:#fff;"/></svg>