<?xml version="1.0" encoding="UTF-8" standalone="no"?><!DOCTYPE svg PUBLIC "-//W3C//DTD SVG 1.1//EN" "http://www.w3.org/Graphics/SVG/1.1/DTD/svg11.dtd"><svg width="100%" height="100%" viewBox="0 0 127 127" version="1.1" xmlns="http://www.w3.org/2000/svg" xmlns:xlink="http://www.w3.org/1999/xlink" xml:space="preserve" xmlns:serif="http://www.serif.com/" style="fill-rule:evenodd;clip-rule:evenodd;stroke-linejoin:round;stroke-miterlimit:2;"><g id="Instagram"><path d="M63.306,-0c34.963,-0 63.306,28.343 63.306,63.306c0,34.963 -28.343,63.306 -63.306,63.306c-34.963,0 -63.306,-28.343 -63.306,-63.306c-0,-34.963 28.343,-63.306 63.306,-63.306" style="fill:#5336aa;fill-rule:nonzero;"/><path d="M63.306,23.447c-10.825,-0 -12.183,0.046 -16.434,0.24c-4.242,0.193 -7.14,0.867 -9.675,1.852c-2.622,1.019 -4.844,2.382 -7.06,4.598c-2.217,2.216 -3.579,4.438 -4.598,7.06c-0.985,2.535 -1.659,5.433 -1.852,9.675c-0.194,4.251 -0.24,5.609 -0.24,16.434c-0,10.825 0.046,12.183 0.24,16.434c0.193,4.242 0.867,7.14 1.852,9.675c1.019,2.622 2.381,4.845 4.598,7.061c2.216,2.216 4.438,3.579 7.06,4.597c2.535,0.985 5.433,1.659 9.675,1.852c4.251,0.195 5.609,0.241 16.434,0.241c10.825,-0 12.183,-0.046 16.434,-0.241c4.242,-0.193 7.14,-0.867 9.675,-1.852c2.622,-1.018 4.845,-2.381 7.061,-4.597c2.215,-2.216 3.579,-4.439 4.597,-7.061c0.985,-2.535 1.659,-5.433 1.852,-9.675c0.195,-4.251 0.241,-5.609 0.241,-16.434c-0,-10.825 -0.046,-12.183 -0.241,-16.434c-0.193,-4.242 -0.867,-7.14 -1.852,-9.675c-1.018,-2.622 -2.382,-4.844 -4.597,-7.06c-2.216,-2.216 -4.439,-3.579 -7.061,-4.598c-2.535,-0.985 -5.433,-1.659 -9.675,-1.852c-4.251,-0.194 -5.609,-0.24 -16.434,-0.24m0,7.182c10.643,-0 11.904,0.04 16.107,0.232c3.886,0.178 5.997,0.827 7.401,1.373c1.861,0.723 3.189,1.586 4.583,2.981c1.395,1.395 2.259,2.723 2.982,4.583c0.546,1.404 1.195,3.516 1.373,7.401c0.191,4.204 0.231,5.464 0.231,16.107c0,10.643 -0.04,11.904 -0.231,16.107c-0.178,3.886 -0.827,5.997 -1.373,7.401c-0.723,1.861 -1.587,3.189 -2.982,4.583c-1.394,1.395 -2.722,2.259 -4.583,2.982c-1.404,0.546 -3.515,1.195 -7.401,1.373c-4.202,0.191 -5.463,0.231 -16.107,0.231c-10.644,0 -11.904,-0.04 -16.107,-0.231c-3.885,-0.178 -5.997,-0.827 -7.401,-1.373c-1.86,-0.723 -3.188,-1.587 -4.583,-2.982c-1.395,-1.394 -2.258,-2.722 -2.981,-4.583c-0.546,-1.404 -1.196,-3.515 -1.373,-7.401c-0.192,-4.203 -0.232,-5.464 -0.232,-16.107c-0,-10.643 0.04,-11.903 0.232,-16.107c0.177,-3.885 0.827,-5.997 1.373,-7.401c0.723,-1.86 1.586,-3.188 2.981,-4.583c1.395,-1.395 2.723,-2.258 4.583,-2.981c1.404,-0.546 3.516,-1.195 7.401,-1.373c4.204,-0.192 5.464,-0.232 16.107,-0.232" style="fill:#fff;fill-rule:nonzero;"/><path d="M63.306,76.593c-7.338,-0 -13.287,-5.949 -13.287,-13.287c0,-7.338 5.949,-13.286 13.287,-13.286c7.338,0 13.287,5.948 13.287,13.286c-0,7.338 -5.949,13.287 -13.287,13.287m0,-33.755c-11.304,-0 -20.468,9.164 -20.468,20.468c0,11.304 9.164,20.469 20.468,20.469c11.304,-0 20.468,-9.165 20.468,-20.469c0,-11.304 -9.164,-20.468 -20.468,-20.468" style="fill:#fff;fill-rule:nonzero;"/><path d="M89.366,42.029c0,2.642 -2.141,4.783 -4.783,4.783c-2.642,0 -4.783,-2.141 -4.783,-4.783c0,-2.642 2.141,-4.783 4.783,-4.783c2.642,-0 4.783,2.141 4.783,4.783" style="fill:#fff;fill-rule:nonzero;"/></g></svg>