<?xml version="1.0" encoding="UTF-8" standalone="no"?><!DOCTYPE svg PUBLIC "-//W3C//DTD SVG 1.1//EN" "http://www.w3.org/Graphics/SVG/1.1/DTD/svg11.dtd"><svg width="100%" height="100%" viewBox="0 0 113 113" version="1.1" xmlns="http://www.w3.org/2000/svg" xmlns:xlink="http://www.w3.org/1999/xlink" xml:space="preserve" xmlns:serif="http://www.serif.com/" style="fill-rule:evenodd;clip-rule:evenodd;stroke-linejoin:round;stroke-miterlimit:2;"><path d="M56.192,0c31.034,0 56.192,25.158 56.192,56.192c0,31.034 -25.158,56.192 -56.192,56.192c-31.034,0 -56.192,-25.158 -56.192,-56.192c0,-31.034 25.158,-56.192 56.192,-56.192Zm0,20.812c-9.608,-0 -10.814,0.041 -14.587,0.213c-3.766,0.171 -6.338,0.77 -8.588,1.644c-2.327,0.904 -4.3,2.115 -6.267,4.081c-1.967,1.967 -3.177,3.94 -4.081,6.267c-0.874,2.25 -1.473,4.822 -1.644,8.588c-0.172,3.773 -0.213,4.979 -0.213,14.587c-0,9.609 0.041,10.814 0.213,14.588c0.171,3.765 0.77,6.337 1.644,8.587c0.904,2.327 2.114,4.3 4.081,6.267c1.967,1.967 3.94,3.177 6.267,4.081c2.25,0.874 4.822,1.473 8.588,1.644c3.773,0.173 4.979,0.213 14.587,0.213c9.609,0 10.814,-0.04 14.588,-0.213c3.765,-0.171 6.337,-0.77 8.587,-1.644c2.327,-0.904 4.3,-2.114 6.267,-4.081c1.967,-1.967 3.177,-3.94 4.081,-6.267c0.874,-2.25 1.473,-4.822 1.644,-8.587c0.173,-3.774 0.213,-4.979 0.213,-14.588c0,-9.608 -0.04,-10.814 -0.213,-14.587c-0.171,-3.766 -0.77,-6.338 -1.644,-8.588c-0.904,-2.327 -2.114,-4.3 -4.081,-6.267c-1.967,-1.966 -3.94,-3.177 -6.267,-4.081c-2.25,-0.874 -4.822,-1.473 -8.587,-1.644c-3.774,-0.172 -4.979,-0.213 -14.588,-0.213Zm0,6.375c9.447,-0 10.566,0.036 14.297,0.206c3.449,0.158 5.323,0.734 6.569,1.218c1.652,0.642 2.831,1.409 4.068,2.647c1.238,1.238 2.005,2.416 2.647,4.068c0.484,1.246 1.06,3.12 1.219,6.569c0.169,3.731 0.205,4.85 0.205,14.297c0,9.447 -0.036,10.566 -0.205,14.297c-0.159,3.449 -0.735,5.323 -1.219,6.569c-0.642,1.652 -1.409,2.831 -2.647,4.068c-1.237,1.238 -2.416,2.005 -4.068,2.647c-1.246,0.484 -3.12,1.061 -6.569,1.219c-3.73,0.169 -4.849,0.205 -14.297,0.205c-9.448,0 -10.567,-0.036 -14.297,-0.205c-3.449,-0.158 -5.323,-0.735 -6.569,-1.219c-1.652,-0.642 -2.83,-1.409 -4.068,-2.647c-1.238,-1.237 -2.005,-2.416 -2.647,-4.068c-0.484,-1.246 -1.061,-3.12 -1.218,-6.569c-0.17,-3.731 -0.206,-4.85 -0.206,-14.297c-0,-9.447 0.036,-10.566 0.206,-14.297c0.157,-3.449 0.734,-5.323 1.218,-6.569c0.642,-1.652 1.409,-2.83 2.647,-4.068c1.238,-1.238 2.416,-2.005 4.068,-2.647c1.246,-0.484 3.12,-1.06 6.569,-1.218c3.731,-0.17 4.85,-0.206 14.297,-0.206Zm0,10.837c-10.034,-0 -18.168,8.134 -18.168,18.168c0,10.034 8.134,18.169 18.168,18.169c10.034,-0 18.168,-8.135 18.168,-18.169c0,-10.034 -8.134,-18.168 -18.168,-18.168Zm0,29.962c-6.513,-0 -11.794,-5.281 -11.794,-11.794c0,-6.513 5.281,-11.793 11.794,-11.793c6.513,0 11.794,5.28 11.794,11.793c-0,6.513 -5.281,11.794 -11.794,11.794Zm23.132,-30.68c-0,-2.345 -1.901,-4.246 -4.246,-4.246c-2.345,0 -4.245,1.901 -4.245,4.246c-0,2.345 1.9,4.246 4.245,4.246c2.345,-0 4.246,-1.901 4.246,-4.246Z" style="fill:#ff1ac6;"/></svg>