<?xml version="1.0" encoding="UTF-8" standalone="no"?><!DOCTYPE svg PUBLIC "-//W3C//DTD SVG 1.1//EN" "http://www.w3.org/Graphics/SVG/1.1/DTD/svg11.dtd"><svg width="100%" height="100%" viewBox="0 0 113 113" version="1.1" xmlns="http://www.w3.org/2000/svg" xmlns:xlink="http://www.w3.org/1999/xlink" xml:space="preserve" xmlns:serif="http://www.serif.com/" style="fill-rule:evenodd;clip-rule:evenodd;stroke-linejoin:round;stroke-miterlimit:2;"><path d="M112.384,56.192c0,31.034 -25.158,56.192 -56.192,56.192c-31.034,0 -56.192,-25.158 -56.192,-56.192c0,-31.034 25.158,-56.192 56.192,-56.192c31.034,0 56.192,25.158 56.192,56.192Zm-73.755,8.587c0,-7.094 -0.007,-14.187 0.013,-21.281c0.002,-0.668 -0.105,-0.97 -0.884,-0.962c-4.055,0.039 -8.11,0.031 -12.166,0.004c-0.626,-0.003 -0.769,0.207 -0.768,0.796c0.014,14.245 0.015,28.491 -0.004,42.736c-0,0.662 0.193,0.823 0.833,0.818c3.997,-0.028 7.995,-0.038 11.992,0.005c0.81,0.01 1.004,-0.227 1.001,-1.009c-0.028,-7.036 -0.017,-14.071 -0.017,-21.107Zm1.103,-36.355c-0.004,-4.353 -3.604,-7.94 -7.972,-7.945c-4.399,-0.004 -8.012,3.617 -7.997,8.014c0.014,4.348 3.63,7.95 7.98,7.948c4.408,-0.001 7.993,-3.6 7.989,-8.017Zm20.808,20.102c0,-1.7 -0.026,-3.401 0.014,-5.1c0.015,-0.667 -0.167,-0.895 -0.871,-0.888c-3.825,0.034 -7.651,0.031 -11.476,0.002c-0.665,-0.005 -0.896,0.159 -0.895,0.862c0.019,14.222 0.019,28.443 0.001,42.665c-0.001,0.654 0.186,0.828 0.832,0.823c4.027,-0.029 8.056,-0.033 12.084,0.003c0.732,0.006 0.911,-0.205 0.908,-0.921c-0.027,-7.184 -0.013,-14.367 -0.019,-21.55c-0.001,-1.16 0.067,-2.313 0.211,-3.465c0.606,-4.822 3.071,-7.17 7.813,-7.42c3.473,-0.184 5.847,1.506 6.803,4.82c0.52,1.8 0.637,3.65 0.644,5.501c0.023,7.386 0.017,14.772 -0.004,22.158c-0.003,0.665 0.149,0.883 0.853,0.877c3.998,-0.036 7.998,-0.034 11.997,-0.002c0.715,0.006 0.919,-0.184 0.917,-0.911c-0.017,-7.762 0.019,-15.524 0.006,-23.287c-0.007,-3.68 -0.194,-7.348 -1.207,-10.921c-1.352,-4.765 -4.187,-8.122 -9.063,-9.532c-2.133,-0.617 -4.319,-0.777 -6.531,-0.795c-4.024,-0.034 -7.472,1.351 -10.385,4.098c-0.949,0.893 -1.709,1.946 -2.632,2.983Z" style="fill:#5336aa;"/></svg>