<?xml version="1.0" encoding="UTF-8" standalone="no"?><!DOCTYPE svg PUBLIC "-//W3C//DTD SVG 1.1//EN" "http://www.w3.org/Graphics/SVG/1.1/DTD/svg11.dtd"><svg width="100%" height="100%" viewBox="0 0 127 127" version="1.1" xmlns="http://www.w3.org/2000/svg" xmlns:xlink="http://www.w3.org/1999/xlink" xml:space="preserve" xmlns:serif="http://www.serif.com/" style="fill-rule:evenodd;clip-rule:evenodd;stroke-linejoin:round;stroke-miterlimit:2;"><g id="Linkedin"><path d="M126.612,63.306c0,34.963 -28.343,63.306 -63.306,63.306c-34.963,0 -63.306,-28.343 -63.306,-63.306c0,-34.963 28.343,-63.306 63.306,-63.306c34.963,0 63.306,28.343 63.306,63.306" style="fill:#5336aa;fill-rule:nonzero;"/><path d="M68.205,54.669c1.04,-1.168 1.896,-2.354 2.964,-3.36c3.283,-3.095 7.167,-4.656 11.7,-4.617c2.492,0.021 4.955,0.201 7.358,0.896c5.494,1.588 8.687,5.371 10.21,10.738c1.142,4.025 1.353,8.158 1.36,12.304c0.015,8.746 -0.025,17.49 -0.006,26.235c0.002,0.819 -0.228,1.034 -1.034,1.027c-4.504,-0.037 -9.011,-0.038 -13.515,0.002c-0.794,0.006 -0.965,-0.239 -0.962,-0.989c0.025,-8.32 0.031,-16.641 0.005,-24.963c-0.008,-2.085 -0.14,-4.169 -0.725,-6.196c-1.078,-3.735 -3.751,-5.638 -7.664,-5.432c-5.342,0.283 -8.12,2.928 -8.802,8.361c-0.162,1.298 -0.239,2.596 -0.238,3.903c0.006,8.093 -0.009,16.185 0.021,24.278c0.003,0.807 -0.199,1.044 -1.023,1.038c-4.538,-0.04 -9.077,-0.036 -13.614,-0.004c-0.728,0.006 -0.938,-0.19 -0.937,-0.926c0.021,-16.023 0.021,-32.045 -0.001,-48.067c-0.001,-0.793 0.259,-0.976 1.008,-0.971c4.31,0.032 8.619,0.036 12.929,-0.003c0.793,-0.007 0.998,0.25 0.981,1.001c-0.044,1.914 -0.015,3.83 -0.015,5.745" style="fill:#fefefe;fill-rule:nonzero;"/><path d="M43.52,72.98c0,7.927 -0.013,15.853 0.019,23.78c0.004,0.88 -0.216,1.147 -1.128,1.137c-4.503,-0.049 -9.007,-0.038 -13.51,-0.007c-0.722,0.006 -0.939,-0.175 -0.938,-0.921c0.021,-16.049 0.019,-32.098 0.003,-48.146c-0.001,-0.664 0.161,-0.901 0.866,-0.897c4.569,0.03 9.138,0.039 13.706,-0.005c0.878,-0.009 0.998,0.331 0.996,1.084c-0.022,7.992 -0.014,15.984 -0.014,23.975" style="fill:#fefefe;fill-rule:nonzero;"/><path d="M44.762,32.022c0.005,4.977 -4.035,9.031 -9,9.033c-4.901,0.002 -8.975,-4.056 -8.991,-8.955c-0.016,-4.954 4.054,-9.033 9.01,-9.028c4.921,0.006 8.976,4.046 8.981,8.95" style="fill:#fefefe;fill-rule:nonzero;"/></g></svg>