<?xml version="1.0" encoding="UTF-8" standalone="no"?><!DOCTYPE svg PUBLIC "-//W3C//DTD SVG 1.1//EN" "http://www.w3.org/Graphics/SVG/1.1/DTD/svg11.dtd"><svg width="100%" height="100%" viewBox="0 0 475 80" version="1.1" xmlns="http://www.w3.org/2000/svg" xmlns:xlink="http://www.w3.org/1999/xlink" xml:space="preserve" xmlns:serif="http://www.serif.com/" style="fill-rule:evenodd;clip-rule:evenodd;stroke-linejoin:round;stroke-miterlimit:2;"><g><path d="M143.685,70.253c-4.5,0 -8.584,-0.847 -12.25,-2.542c-3.667,-1.694 -6.82,-3.972 -9.459,-6.833c-2.639,-2.861 -4.666,-6.083 -6.083,-9.667c-1.417,-3.583 -2.125,-7.291 -2.125,-11.125c0,-3.944 0.75,-7.694 2.25,-11.25c1.5,-3.555 3.597,-6.736 6.292,-9.541c2.694,-2.806 5.889,-5.014 9.583,-6.625c3.694,-1.611 7.736,-2.417 12.125,-2.417c4.5,0 8.583,0.847 12.25,2.542c3.667,1.694 6.806,3.986 9.417,6.875c2.611,2.889 4.625,6.125 6.041,9.708c1.417,3.583 2.125,7.264 2.125,11.042c0,3.889 -0.736,7.611 -2.208,11.166c-1.472,3.556 -3.556,6.736 -6.25,9.542c-2.694,2.806 -5.875,5.028 -9.542,6.667c-3.666,1.639 -7.722,2.458 -12.166,2.458Zm-13.417,-30c0,2 0.278,3.931 0.833,5.792c0.556,1.861 1.389,3.527 2.5,5c1.111,1.472 2.514,2.639 4.209,3.5c1.694,0.861 3.708,1.291 6.041,1.291c2.334,0 4.361,-0.444 6.084,-1.333c1.722,-0.889 3.125,-2.097 4.208,-3.625c1.083,-1.528 1.889,-3.222 2.417,-5.083c0.527,-1.861 0.791,-3.764 0.791,-5.709c0,-2 -0.277,-3.916 -0.833,-5.75c-0.556,-1.833 -1.389,-3.486 -2.5,-4.958c-1.111,-1.472 -2.528,-2.625 -4.25,-3.458c-1.722,-0.834 -3.722,-1.25 -6,-1.25c-2.333,-0 -4.347,0.444 -6.042,1.333c-1.694,0.889 -3.097,2.069 -4.208,3.542c-1.111,1.472 -1.931,3.139 -2.458,5c-0.528,1.861 -0.792,3.764 -0.792,5.708Z" style="fill:#fff;fill-rule:nonzero;"/><path d="M231.101,54.67c0,3.555 -0.958,6.444 -2.875,8.666c-1.916,2.223 -4.486,3.861 -7.708,4.917c-3.222,1.056 -6.778,1.583 -10.667,1.583l-29.083,0l0,-59.166l34.333,-0c2.778,-0 5.181,0.736 7.209,2.208c2.027,1.472 3.583,3.375 4.666,5.708c1.084,2.334 1.625,4.75 1.625,7.25c0,2.723 -0.708,5.361 -2.125,7.917c-1.416,2.556 -3.541,4.472 -6.375,5.75c3.389,1 6.07,2.75 8.042,5.25c1.972,2.5 2.958,5.806 2.958,9.917Zm-16.5,-3.334c0,-1 -0.18,-1.875 -0.541,-2.625c-0.361,-0.75 -0.848,-1.347 -1.459,-1.791c-0.611,-0.445 -1.333,-0.667 -2.166,-0.667l-13.417,0l0,9.917l12.833,-0c0.889,-0 1.695,-0.195 2.417,-0.584c0.722,-0.389 1.292,-0.944 1.708,-1.666c0.417,-0.723 0.625,-1.584 0.625,-2.584Zm-17.583,-26.833l0,9.083l11.083,0c0.723,0 1.417,-0.125 2.084,-0.375c0.666,-0.25 1.222,-0.708 1.666,-1.375c0.445,-0.666 0.667,-1.611 0.667,-2.833c0,-1.111 -0.181,-1.986 -0.542,-2.625c-0.361,-0.639 -0.833,-1.111 -1.416,-1.417c-0.584,-0.305 -1.236,-0.458 -1.959,-0.458l-11.583,0Z" style="fill:#fff;fill-rule:nonzero;"/><path d="M264.935,70.253c-4.5,0 -8.584,-0.847 -12.25,-2.542c-3.667,-1.694 -6.82,-3.972 -9.459,-6.833c-2.639,-2.861 -4.666,-6.083 -6.083,-9.667c-1.417,-3.583 -2.125,-7.291 -2.125,-11.125c0,-3.944 0.75,-7.694 2.25,-11.25c1.5,-3.555 3.597,-6.736 6.292,-9.541c2.694,-2.806 5.889,-5.014 9.583,-6.625c3.694,-1.611 7.736,-2.417 12.125,-2.417c4.5,0 8.583,0.847 12.25,2.542c3.667,1.694 6.806,3.986 9.417,6.875c2.611,2.889 4.625,6.125 6.041,9.708c1.417,3.583 2.125,7.264 2.125,11.042c0,3.889 -0.736,7.611 -2.208,11.166c-1.472,3.556 -3.556,6.736 -6.25,9.542c-2.694,2.806 -5.875,5.028 -9.542,6.667c-3.666,1.639 -7.722,2.458 -12.166,2.458Zm-13.417,-30c0,2 0.278,3.931 0.833,5.792c0.556,1.861 1.389,3.527 2.5,5c1.111,1.472 2.514,2.639 4.209,3.5c1.694,0.861 3.708,1.291 6.041,1.291c2.334,0 4.361,-0.444 6.084,-1.333c1.722,-0.889 3.125,-2.097 4.208,-3.625c1.083,-1.528 1.889,-3.222 2.417,-5.083c0.527,-1.861 0.791,-3.764 0.791,-5.709c0,-2 -0.277,-3.916 -0.833,-5.75c-0.556,-1.833 -1.389,-3.486 -2.5,-4.958c-1.111,-1.472 -2.528,-2.625 -4.25,-3.458c-1.722,-0.834 -3.722,-1.25 -6,-1.25c-2.333,-0 -4.347,0.444 -6.042,1.333c-1.694,0.889 -3.097,2.069 -4.208,3.542c-1.111,1.472 -1.931,3.139 -2.458,5c-0.528,1.861 -0.792,3.764 -0.792,5.708Z" style="fill:#fff;fill-rule:nonzero;"/><path d="M328.685,70.253c-4.5,0 -8.584,-0.847 -12.25,-2.542c-3.667,-1.694 -6.82,-3.972 -9.459,-6.833c-2.639,-2.861 -4.666,-6.083 -6.083,-9.667c-1.417,-3.583 -2.125,-7.291 -2.125,-11.125c0,-3.944 0.75,-7.694 2.25,-11.25c1.5,-3.555 3.597,-6.736 6.292,-9.541c2.694,-2.806 5.889,-5.014 9.583,-6.625c3.694,-1.611 7.736,-2.417 12.125,-2.417c4.5,0 8.583,0.847 12.25,2.542c3.667,1.694 6.806,3.986 9.417,6.875c2.611,2.889 4.625,6.125 6.041,9.708c1.417,3.583 2.125,7.264 2.125,11.042c0,3.889 -0.736,7.611 -2.208,11.166c-1.472,3.556 -3.556,6.736 -6.25,9.542c-2.694,2.806 -5.875,5.028 -9.542,6.667c-3.666,1.639 -7.722,2.458 -12.166,2.458Zm-13.417,-30c0,2 0.278,3.931 0.833,5.792c0.556,1.861 1.389,3.527 2.5,5c1.111,1.472 2.514,2.639 4.209,3.5c1.694,0.861 3.708,1.291 6.041,1.291c2.334,0 4.361,-0.444 6.084,-1.333c1.722,-0.889 3.125,-2.097 4.208,-3.625c1.083,-1.528 1.889,-3.222 2.417,-5.083c0.527,-1.861 0.791,-3.764 0.791,-5.709c0,-2 -0.277,-3.916 -0.833,-5.75c-0.556,-1.833 -1.389,-3.486 -2.5,-4.958c-1.111,-1.472 -2.528,-2.625 -4.25,-3.458c-1.722,-0.834 -3.722,-1.25 -6,-1.25c-2.333,-0 -4.347,0.444 -6.042,1.333c-1.694,0.889 -3.097,2.069 -4.208,3.542c-1.111,1.472 -1.931,3.139 -2.458,5c-0.528,1.861 -0.792,3.764 -0.792,5.708Z" style="fill:#fff;fill-rule:nonzero;"/><path d="M392.435,70.253c-4.5,0 -8.584,-0.847 -12.25,-2.542c-3.667,-1.694 -6.82,-3.972 -9.459,-6.833c-2.639,-2.861 -4.666,-6.083 -6.083,-9.667c-1.417,-3.583 -2.125,-7.291 -2.125,-11.125c0,-3.944 0.75,-7.694 2.25,-11.25c1.5,-3.555 3.597,-6.736 6.292,-9.541c2.694,-2.806 5.889,-5.014 9.583,-6.625c3.694,-1.611 7.736,-2.417 12.125,-2.417c4.5,0 8.583,0.847 12.25,2.542c3.667,1.694 6.806,3.986 9.417,6.875c2.611,2.889 4.625,6.125 6.041,9.708c1.417,3.583 2.125,7.264 2.125,11.042c0,3.889 -0.736,7.611 -2.208,11.166c-1.472,3.556 -3.556,6.736 -6.25,9.542c-2.694,2.806 -5.875,5.028 -9.542,6.667c-3.666,1.639 -7.722,2.458 -12.166,2.458Zm-13.417,-30c0,2 0.278,3.931 0.833,5.792c0.556,1.861 1.389,3.527 2.5,5c1.111,1.472 2.514,2.639 4.209,3.5c1.694,0.861 3.708,1.291 6.041,1.291c2.334,0 4.361,-0.444 6.084,-1.333c1.722,-0.889 3.125,-2.097 4.208,-3.625c1.083,-1.528 1.889,-3.222 2.417,-5.083c0.527,-1.861 0.791,-3.764 0.791,-5.709c0,-2 -0.277,-3.916 -0.833,-5.75c-0.556,-1.833 -1.389,-3.486 -2.5,-4.958c-1.111,-1.472 -2.528,-2.625 -4.25,-3.458c-1.722,-0.834 -3.722,-1.25 -6,-1.25c-2.333,-0 -4.347,0.444 -6.042,1.333c-1.694,0.889 -3.097,2.069 -4.208,3.542c-1.111,1.472 -1.931,3.139 -2.458,5c-0.528,1.861 -0.792,3.764 -0.792,5.708Z" style="fill:#fff;fill-rule:nonzero;"/><path d="M474.685,24.836l-17,0l-0,45l-16.25,0l-0,-45l-17.084,0l0,-14.166l50.334,-0l-0,14.166Z" style="fill:#fff;fill-rule:nonzero;"/></g><g><path d="M39.935,0c22.056,-0.107 39.936,17.686 39.936,39.742c-0,22.055 -17.88,40.022 -39.936,40.129c-22.055,0.108 -39.935,-17.685 -39.935,-39.741c-0,-22.056 17.88,-40.022 39.935,-40.13" style="fill:#ffe433;fill-rule:nonzero;"/><path d="M54.568,29.939c5.426,-0.026 9.825,4.351 9.825,9.777c-0,5.426 -4.399,9.846 -9.825,9.872c-5.426,0.027 -9.824,-4.351 -9.824,-9.776c-0,-5.426 4.398,-9.846 9.824,-9.873" style="fill:#ff1ac6;fill-rule:nonzero;"/><path d="M32.869,18.445l11.991,-0.058c1.177,-0.006 2.131,0.943 2.131,2.119c-0,1.177 -0.954,2.135 -2.131,2.141l-11.991,0.058c-1.176,0.006 -2.13,-0.943 -2.13,-2.12c-0,-1.176 0.954,-2.134 2.13,-2.14" style="fill:#ff1ac6;fill-rule:nonzero;"/><path d="M31.656,55.117c-0.62,0.002 -1.197,0.32 -1.533,0.843c-0.545,0.849 -0.301,1.977 0.545,2.518l7.293,4.664c0.602,0.384 1.374,0.38 1.976,-0.01l7.125,-4.626c0.847,-0.55 1.091,-1.679 0.545,-2.523c-0.545,-0.844 -1.674,-1.083 -2.52,-0.533l-6.138,3.985l-6.305,-4.033c-0.295,-0.188 -0.637,-0.287 -0.988,-0.285Z" style="fill:#ff1ac6;fill-rule:nonzero;"/><path d="M24.171,30.087c5.426,-0.026 9.824,4.351 9.824,9.777c0,5.426 -4.398,9.846 -9.824,9.872c-5.426,0.026 -9.824,-4.351 -9.824,-9.777c-0,-5.426 4.398,-9.845 9.824,-9.872" style="fill:#ff1ac6;fill-rule:nonzero;"/></g></svg>