<?xml version="1.0" encoding="UTF-8" standalone="no"?><!DOCTYPE svg PUBLIC "-//W3C//DTD SVG 1.1//EN" "http://www.w3.org/Graphics/SVG/1.1/DTD/svg11.dtd"><svg width="100%" height="100%" viewBox="0 0 128 128" version="1.1" xmlns="http://www.w3.org/2000/svg" xmlns:xlink="http://www.w3.org/1999/xlink" xml:space="preserve" xmlns:serif="http://www.serif.com/" style="fill-rule:evenodd;clip-rule:evenodd;stroke-linejoin:round;stroke-miterlimit:2;"><g><path d="M63.764,0.001c35.216,-0.171 63.764,28.238 63.764,63.454c0,35.216 -28.548,63.903 -63.764,64.074c-35.216,0.171 -63.764,-28.238 -63.764,-63.454c0,-35.216 28.548,-63.903 63.764,-64.074" style="fill:#5336aa;fill-rule:nonzero;"/><path d="M87.128,47.804c8.664,-0.043 15.687,6.946 15.687,15.61c-0,8.663 -7.023,15.72 -15.687,15.763c-8.663,0.042 -15.686,-6.947 -15.686,-15.611c-0,-8.663 7.023,-15.72 15.686,-15.762" style="fill:#f2f2f2;fill-rule:nonzero;"/><path d="M52.481,29.451l19.147,-0.094c1.878,-0.009 3.401,1.507 3.401,3.385c0,1.878 -1.523,3.409 -3.401,3.418l-19.147,0.093c-1.878,0.009 -3.401,-1.506 -3.401,-3.385c0,-1.878 1.523,-3.408 3.401,-3.417" style="fill:#f2f2f2;fill-rule:nonzero;"/><path d="M50.545,88.004c-0.99,0.004 -1.912,0.512 -2.448,1.347c-0.871,1.356 -0.481,3.156 0.87,4.02l11.645,7.446c0.96,0.614 2.194,0.608 3.154,-0.015l11.377,-7.386c1.352,-0.878 1.742,-2.682 0.871,-4.029c-0.871,-1.348 -2.673,-1.729 -4.025,-0.851l-9.8,6.362l-10.067,-6.438c-0.47,-0.3 -1.017,-0.459 -1.577,-0.456Z" style="fill:#f2f2f2;fill-rule:nonzero;"/><path d="M38.594,48.04c8.663,-0.042 15.686,6.946 15.686,15.61c0,8.663 -7.023,15.721 -15.686,15.763c-8.664,0.042 -15.687,-6.947 -15.687,-15.611c0,-8.663 7.023,-15.72 15.687,-15.762" style="fill:#f2f2f2;fill-rule:nonzero;"/></g></svg>