<?xml version="1.0" encoding="UTF-8" standalone="no"?><!DOCTYPE svg PUBLIC "-//W3C//DTD SVG 1.1//EN" "http://www.w3.org/Graphics/SVG/1.1/DTD/svg11.dtd"><svg width="100%" height="100%" viewBox="0 0 478 478" version="1.1" xmlns="http://www.w3.org/2000/svg" xmlns:xlink="http://www.w3.org/1999/xlink" xml:space="preserve" xmlns:serif="http://www.serif.com/" style="fill-rule:evenodd;clip-rule:evenodd;stroke-linejoin:round;stroke-miterlimit:2;"><g><path d="M238.749,-0c131.858,-0 238.75,106.892 238.75,238.749c-0,131.859 -106.892,238.75 -238.75,238.75c-131.857,-0 -238.749,-106.891 -238.749,-238.75c0,-131.857 106.892,-238.749 238.749,-238.749" style="fill:#ffe433;fill-rule:nonzero;"/><path d="M326.734,179.414c32.438,-0 58.734,26.296 58.734,58.734c-0,32.438 -26.296,58.735 -58.734,58.735c-32.439,-0 -58.735,-26.297 -58.735,-58.735c0,-32.438 26.296,-58.734 58.735,-58.734" style="fill:#ff1ac6;fill-rule:nonzero;"/><path d="M197.007,110.065l71.689,-0c7.033,-0 12.735,5.701 12.735,12.735c0,7.033 -5.702,12.734 -12.735,12.734l-71.689,-0c-7.033,-0 -12.735,-5.701 -12.735,-12.734c-0,-7.034 5.702,-12.735 12.735,-12.735" style="fill:#ff1ac6;fill-rule:nonzero;"/><path d="M189.758,329.267c-3.707,-0 -7.16,1.883 -9.167,4.999c-3.261,5.061 -1.803,11.808 3.259,15.069l43.6,28.093c3.596,2.316 8.213,2.316 11.809,0l42.598,-27.449c5.062,-3.261 6.522,-10.008 3.262,-15.07c-3.262,-5.061 -10.009,-6.521 -15.071,-3.259l-36.694,23.644l-37.693,-24.289c-1.76,-1.134 -3.809,-1.737 -5.903,-1.738Z" style="fill:#ff1ac6;fill-rule:nonzero;"/><path d="M145.007,179.414c32.438,-0 58.734,26.296 58.734,58.734c0,32.438 -26.296,58.735 -58.734,58.735c-32.438,-0 -58.734,-26.297 -58.734,-58.735c-0,-32.438 26.296,-58.734 58.734,-58.734" style="fill:#ff1ac6;fill-rule:nonzero;"/></g></svg>