<?xml version="1.0" encoding="UTF-8" standalone="no"?><!DOCTYPE svg PUBLIC "-//W3C//DTD SVG 1.1//EN" "http://www.w3.org/Graphics/SVG/1.1/DTD/svg11.dtd"><svg width="100%" height="100%" viewBox="0 0 2461 1781" version="1.1" xmlns="http://www.w3.org/2000/svg" xmlns:xlink="http://www.w3.org/1999/xlink" xml:space="preserve" xmlns:serif="http://www.serif.com/" style="fill-rule:evenodd;clip-rule:evenodd;stroke-linecap:round;stroke-linejoin:round;stroke-miterlimit:1.5;"><rect x="0" y="0" width="2460.98" height="1780.11" style="fill:none;"/><rect x="46.046" y="0" width="2368.89" height="1780.11" style="fill:none;"/><g><path d="M1876.78,440.11c-0,-21.16 -17.18,-38.34 -38.34,-38.34l-1392.8,-0c-21.161,-0 -38.34,17.18 -38.34,38.34l-0,1258.97c-0,21.161 17.179,38.34 38.34,38.34l1392.8,0c21.16,0 38.34,-17.179 38.34,-38.34l-0,-1258.97Z" style="fill:#eeefff;stroke:#5336aa;stroke-width:29.17px;"/><g id="camera"><path d="M1253.73,957.231c11.756,43.873 -14.522,89.388 -58.395,101.143l-797.692,213.741c-43.873,11.756 -89.388,-14.521 -101.144,-58.395l-213.741,-797.692c-11.755,-43.874 14.523,-89.388 58.396,-101.144l797.692,-213.741c43.873,-11.755 89.388,14.522 101.143,58.395l213.741,797.693Z" style="fill:url(#_Linear1);fill-rule:nonzero;"/><path d="M1232.35,877.462c11.756,43.873 -14.522,89.387 -58.395,101.143l-797.692,213.741c-43.873,11.756 -89.388,-14.522 -101.144,-58.395l-213.741,-797.693c-11.756,-43.873 14.522,-89.387 58.395,-101.143l797.693,-213.741c43.873,-11.756 89.387,14.522 101.143,58.395l213.741,797.693Z" style="fill:#ffe433;fill-rule:nonzero;"/><path d="M1184.26,697.981l-957.231,256.489l-117.558,-438.731l957.231,-256.489l117.558,438.731Z" style="fill:#ff1ac6;fill-rule:nonzero;"/><path d="M960.218,180.913l-159.538,42.748l-21.375,-79.769l159.539,-42.749l21.374,79.77Z" style="fill:#5336aa;fill-rule:nonzero;"/><path d="M231.608,333.395c5.899,22.016 -7.181,44.672 -29.198,50.572c-22.016,5.899 -44.672,-7.182 -50.571,-29.198c-5.9,-22.016 7.181,-44.672 29.197,-50.572c22.017,-5.899 44.673,7.182 50.572,29.198Z" style="fill:#f06050;fill-rule:nonzero;"/><path d="M741.069,992.198c-117.31,31.433 -236.896,-7.341 -314.135,-90.577l540.895,-144.933c-25.273,110.704 -109.451,204.077 -226.76,235.51Z" style="fill:#efd630;fill-rule:nonzero;"/><path d="M983.605,751.747l-555.916,148.957c-34.855,-37.581 -61.336,-83.962 -75.525,-136.915c-46.494,-173.519 56.487,-351.889 230.007,-398.383c173.519,-46.494 351.889,56.487 398.383,230.007c14.189,52.952 14.445,106.36 3.051,156.334Z" style="fill:#a9007f;fill-rule:nonzero;"/><path d="M970.579,516.48c48.038,179.277 -58.362,363.566 -237.639,411.603c-179.278,48.038 -363.567,-58.362 -411.604,-237.639c-48.037,-179.278 58.362,-363.566 237.64,-411.604c179.277,-48.037 363.566,58.362 411.603,237.64Z" style="fill:#fff;fill-rule:nonzero;"/><path d="M927.296,528.077c41.63,155.364 -50.59,315.094 -205.954,356.723c-155.364,41.63 -315.093,-50.59 -356.723,-205.954c-41.629,-155.363 50.59,-315.093 205.954,-356.723c155.364,-41.629 315.094,50.591 356.723,205.954Z" style="fill:#312d36;fill-rule:nonzero;"/><path d="M840.731,551.273c28.82,107.558 -35.026,218.142 -142.584,246.962c-107.558,28.82 -218.142,-35.026 -246.962,-142.584c-28.82,-107.558 35.026,-218.142 142.583,-246.962c107.558,-28.82 218.143,35.026 246.963,142.584Z" style="fill:#cccfff;fill-rule:nonzero;"/><path d="M732.523,580.267c12.81,47.806 -15.564,96.951 -63.37,109.761c-47.806,12.809 -96.951,-15.565 -109.761,-63.371c-12.81,-47.806 15.565,-96.951 63.371,-109.761c47.805,-12.809 96.951,15.564 109.76,63.371Z" style="fill:#312d36;fill-rule:nonzero;"/><path d="M805.938,421.424c6.402,23.892 -7.793,48.479 -31.685,54.88c-23.893,6.402 -48.479,-7.793 -54.881,-31.685c-6.402,-23.892 7.793,-48.478 31.685,-54.88c23.893,-6.402 48.479,7.793 54.881,31.685Z" style="fill:#fff;fill-rule:nonzero;"/></g><path d="M1706.9,601.491l6.346,-20.785c20.279,-66.414 90.661,-120.333 157.075,-120.333l355.829,0c66.413,0 103.869,53.919 83.591,120.333l-6.346,20.785l74.313,0c18.672,0 29.203,15.16 23.502,33.833l-339.209,1110.95c-5.701,18.672 -25.49,33.832 -44.162,33.832l-1576.7,0c-18.673,0 -29.204,-15.16 -23.502,-33.832l339.208,-1110.95c5.702,-18.673 25.49,-33.833 44.163,-33.833l905.894,0Z" style="fill:url(#_Linear2);"/><g id="paper-plane"><path d="M2402.76,899.338l-408.854,461.271l-52.417,-136.284l461.271,-324.987Z" style="fill:#a9007f;fill-rule:nonzero;"/><path d="M2245.51,1297.71l-241.119,-62.901l398.371,-335.47l-157.252,398.371Z" style="fill:#ff1ac6;fill-rule:nonzero;"/><path d="M1941.49,1224.33l-209.669,-52.417l670.94,-272.57l-461.271,324.987Z" style="fill:#ff1ac6;fill-rule:nonzero;"/><path d="M2086.44,1256.21l-92.533,104.396l10.483,-125.801l82.05,21.405Z" style="fill:#d802a3;fill-rule:nonzero;"/></g><path d="M1921.05,1326.56c-209.977,213.341 -412.266,284.008 -862.749,-25.699c-450.482,-309.706 -649.868,-188.486 -769.527,-82.904" style="fill:none;stroke:#fff;stroke-width:12.5px;stroke-dasharray:12.5,37.5,0,0;"/></g><defs><linearGradient id="_Linear1" x1="0" y1="0" x2="1" y2="0" gradientUnits="userSpaceOnUse" gradientTransform="matrix(-322.494,80.2343,-80.2343,-322.494,820.784,1114.92)"><stop offset="0" style="stop-color:#2e0f89;stop-opacity:1"/><stop offset="1" style="stop-color:#6a31e8;stop-opacity:1"/></linearGradient><linearGradient id="_Linear2" x1="0" y1="0" x2="1" y2="0" gradientUnits="userSpaceOnUse" gradientTransform="matrix(299.887,-1064.89,1064.89,299.887,1409.42,1525.26)"><stop offset="0" style="stop-color:#5336aa;stop-opacity:1"/><stop offset="1" style="stop-color:#6b4dc4;stop-opacity:1"/></linearGradient></defs></svg>