<?xml version="1.0" encoding="UTF-8" standalone="no"?><!DOCTYPE svg PUBLIC "-//W3C//DTD SVG 1.1//EN" "http://www.w3.org/Graphics/SVG/1.1/DTD/svg11.dtd"><svg width="100%" height="100%" viewBox="0 0 1352 1100" version="1.1" xmlns="http://www.w3.org/2000/svg" xmlns:xlink="http://www.w3.org/1999/xlink" xml:space="preserve" xmlns:serif="http://www.serif.com/" style="fill-rule:evenodd;clip-rule:evenodd;stroke-linecap:round;stroke-linejoin:round;stroke-miterlimit:1.5;"><rect x="-0" y="0" width="1351.58" height="1099.63" style="fill:none;"/><clipPath id="_clip1"><rect x="-0" y="0" width="1351.58" height="1099.63"/></clipPath><g clip-path="url(#_clip1)"><g><g><rect x="536.956" y="900.127" width="297.499" height="119" style="fill:url(#_Linear2);"/><path d="M914.246,1078.41c-0,-15.724 -6.246,-30.804 -17.365,-41.922c-11.118,-11.118 -26.198,-17.364 -41.921,-17.364c-87.649,-0 -250.861,-0 -338.509,-0c-15.724,-0 -30.804,6.246 -41.922,17.364c-11.118,11.118 -17.364,26.198 -17.364,41.922c-0,7.632 -0,12.853 -0,12.853l457.081,-0c-0,-0 -0,-5.221 -0,-12.853Z" style="fill:#6b4dc4;"/><path d="M1297.23,161.556c-0,-43.602 -35.399,-79.001 -79.001,-79.001l-1084.88,-0c-43.601,-0 -79.001,35.399 -79.001,79.001l0,703.644c0,43.602 35.4,79.001 79.001,79.001l1084.88,-0c43.602,-0 79.001,-35.399 79.001,-79.001l-0,-703.644Z" style="fill:url(#_Linear3);"/><clipPath id="_clip4"><path d="M1297.23,161.556c-0,-43.602 -35.399,-79.001 -79.001,-79.001l-1084.88,-0c-43.601,-0 -79.001,35.399 -79.001,79.001l0,703.644c0,43.602 35.4,79.001 79.001,79.001l1084.88,-0c43.602,-0 79.001,-35.399 79.001,-79.001l-0,-703.644Z"/></clipPath><g clip-path="url(#_clip4)"><rect x="32.308" y="783.331" width="1296.05" height="160.87" style="fill:#6b4dc4;"/></g><path d="M1297.23,161.556l-0,703.644c-0,43.602 -35.399,79.001 -79.001,79.001l-1084.88,-0c-43.601,-0 -79.001,-35.399 -79.001,-79.001l0,-703.644c0,-43.602 35.4,-79.001 79.001,-79.001l1084.88,-0c43.602,-0 79.001,35.399 79.001,79.001Zm-58.051,-0c-0,-11.563 -9.388,-20.95 -20.95,-20.95l-1084.88,-0c-11.562,-0 -20.949,9.387 -20.949,20.95l-0,703.644c-0,11.563 9.387,20.95 20.949,20.95l1084.88,-0c11.562,-0 20.95,-9.387 20.95,-20.95l-0,-703.644Z" style="fill:#6b4dc4;"/><g><path d="M677.921,22.355c-2.917,-19.654 -21.242,-33.243 -40.897,-30.326l-168.675,25.035c-19.655,2.917 -33.243,21.242 -30.326,40.897l126.528,852.503c2.917,19.654 21.243,33.243 40.897,30.326l168.675,-25.035c19.655,-2.917 33.243,-21.243 30.326,-40.897l-126.528,-852.503Z" style="fill:#ebecff;"/><path d="M678.697,27.583l-239.898,35.605l20.599,138.793l239.898,-35.606l-20.599,-138.792Z" style="fill:#fbb3aa;"/><path d="M700.985,177.751l-239.898,35.606l20.599,138.792l239.898,-35.606l-20.599,-138.792Z" style="fill:#f78a84;"/><path d="M723.273,327.92l-239.898,35.605l20.599,138.792l239.898,-35.605l-20.599,-138.792Z" style="fill:#f5625a;"/><path d="M745.561,478.088l-239.898,35.606l20.599,138.792l239.898,-35.606l-20.599,-138.792Z" style="fill:#f43b30;"/><path d="M767.849,628.257l-239.898,35.605l20.599,138.792l239.898,-35.605l-20.599,-138.792Z" style="fill:#b62d25;"/><path d="M675.878,834.568c14.277,-2.119 27.589,7.752 29.708,22.029c2.119,14.277 -7.752,27.588 -22.029,29.707c-14.277,2.119 -27.589,-7.751 -29.708,-22.028c-2.119,-14.277 7.752,-27.589 22.029,-29.708Z" style="fill:#0b5587;"/></g><g><path d="M272.948,104.779c-12.353,-15.563 -35.018,-18.168 -50.581,-5.815l-133.559,106.018c-15.563,12.354 -18.168,35.018 -5.815,50.581l535.828,675.025c12.354,15.563 35.018,18.168 50.581,5.814l133.56,-106.018c15.562,-12.353 18.168,-35.018 5.814,-50.581l-535.828,-675.024Z" style="fill:#ebecff;"/><path d="M276.234,108.918l-189.955,150.784l87.236,109.898l189.954,-150.784l-87.235,-109.898Z" style="fill:#ffbcee;"/><path d="M370.62,227.824l-189.955,150.784l87.236,109.898l189.955,-150.785l-87.236,-109.897Z" style="fill:#ff9ae6;"/><path d="M465.006,346.729l-189.955,150.785l87.236,109.897l189.955,-150.784l-87.236,-109.898Z" style="fill:#ff6ddb;"/><path d="M559.392,465.635l-189.955,150.784l87.236,109.898l189.955,-150.784l-87.236,-109.898Z" style="fill:#ff1ac6;"/><path d="M653.779,584.541l-189.955,150.784l87.235,109.898l189.955,-150.785l-87.235,-109.897Z" style="fill:#bd008e;"/><path d="M677.285,809.197c11.305,-8.974 27.769,-7.081 36.742,4.224c8.974,11.304 7.081,27.768 -4.223,36.742c-11.305,8.973 -27.769,7.081 -36.742,-4.224c-8.974,-11.305 -7.081,-27.768 4.223,-36.742Z" style="fill:#0b5587;"/></g><g><circle cx="1041.98" cy="727.013" r="111.369" style="fill:#999eff;"/><path d="M1182.3,663.785l-262.575,0c0,0 -20.198,-72.281 -82.628,-148.088c-62.431,-75.807 -106.44,-146.248 -77.12,-301.466c51.376,-271.98 530.695,-266.398 582.072,0c29.912,155.105 -14.69,225.659 -77.12,301.466c-62.431,75.807 -82.629,148.088 -82.629,148.088Z" style="fill:#ffe433;"/><clipPath id="_clip5"><path d="M1182.3,663.785l-262.575,0c0,0 -20.198,-72.281 -82.628,-148.088c-62.431,-75.807 -106.44,-146.248 -77.12,-301.466c51.376,-271.98 530.695,-266.398 582.072,0c29.912,155.105 -14.69,225.659 -77.12,301.466c-62.431,75.807 -82.629,148.088 -82.629,148.088Z"/></clipPath><g clip-path="url(#_clip5)"><path d="M810.047,481.112c230.594,202.768 569.989,14.586 498.947,-347.899c-38.265,-195.244 146.382,274.836 146.382,274.836l-475.998,547.129c-0,0 -113.884,-328.282 -169.331,-474.066Z" style="fill:#efd630;"/></g><path d="M1232.39,674.519c0,-16.822 -13.657,-30.479 -30.478,-30.479l-301.551,0c-16.822,0 -30.479,13.657 -30.479,30.479c0,16.821 13.657,30.478 30.479,30.478l301.551,0c16.821,0 30.478,-13.657 30.478,-30.478Z" style="fill:#fff;"/><path d="M1206.18,727.013c0,-12.151 -9.865,-22.016 -22.016,-22.016l-266.054,0c-12.151,0 -22.016,9.865 -22.016,22.016c-0,12.151 9.865,22.017 22.016,22.017l266.054,-0c12.151,-0 22.016,-9.866 22.016,-22.017Z" style="fill:#cccfff;"/><path d="M810.047,360.696c-25.281,-148.122 38.549,-320.965 265.062,-315.021c-118.11,65.164 -224.007,174.51 -265.062,315.021Z" style="fill:#fff746;"/><path d="M1017.99,644.04c0,0 -1.188,-263.718 -72.868,-297.704c-71.681,-33.986 -76.855,88.217 45.512,67.891c84.599,-14.053 136.22,-173.654 60.763,-173.654c-75.457,0 -17.538,170.404 76.976,173.654c97.31,3.345 94.896,-105.731 33.204,-77.449c-83.513,38.287 -60.56,307.262 -60.56,307.262" style="fill:none;stroke:#fff;stroke-width:18.73px;"/></g><rect x="207.047" y="783.331" width="950.44" height="160.87" style="fill:#6b4dc4;"/></g><g><path d="M326.051,991.606c-2.931,-13.372 -14.775,-22.9 -28.465,-22.9c-27.386,0 -72.425,0 -99.812,0c-13.689,0 -25.533,9.528 -28.465,22.9c-3.961,18.068 -9.556,43.587 -14.092,64.278c-1.89,8.62 0.228,17.631 5.759,24.507c5.532,6.876 13.881,10.875 22.705,10.875c36.261,-0 91.738,-0 127.998,-0c8.825,-0 17.174,-3.999 22.706,-10.875c5.531,-6.876 7.649,-15.887 5.759,-24.507c-4.537,-20.691 -10.131,-46.21 -14.093,-64.278Z" style="fill:#ff1ac6;"/><path d="M343.517,960.461c0,-10.495 -8.52,-19.015 -19.015,-19.015l-153.643,-0c-10.495,-0 -19.016,8.52 -19.016,19.015c0,10.495 8.521,19.015 19.016,19.015l153.643,0c10.495,0 19.015,-8.52 19.015,-19.015Z" style="fill:#ffe433;"/><path d="M257.39,555.237l130.7,221.37l-85.662,164.839l-109.496,-0l-85.662,-164.839l130.692,-221.355c-0.017,55.641 -0.064,141.348 -0.198,176c0,8.166 -4.274,15.737 -11.266,19.955c-12.303,7.265 -20.563,20.662 -20.563,35.972c0,23.039 18.706,41.745 41.745,41.745c23.04,-0 41.745,-18.706 41.745,-41.745c0,-15.31 -8.259,-28.707 -20.665,-35.801c-7.054,-4.254 -11.367,-11.889 -11.37,-20.126l0,-176.015Z" style="fill:#ebecff;"/><clipPath id="_clip6"><path d="M257.39,555.237l130.7,221.37l-85.662,164.839l-109.496,-0l-85.662,-164.839l130.692,-221.355c-0.017,55.641 -0.064,141.348 -0.198,176c0,8.166 -4.274,15.737 -11.266,19.955c-12.303,7.265 -20.563,20.662 -20.563,35.972c0,23.039 18.706,41.745 41.745,41.745c23.04,-0 41.745,-18.706 41.745,-41.745c0,-15.31 -8.259,-28.707 -20.665,-35.801c-7.054,-4.254 -11.367,-11.889 -11.37,-20.126l0,-176.015Z"/></clipPath><g clip-path="url(#_clip6)"><circle cx="185.406" cy="710.721" r="182.911" style="fill:#fff;"/></g></g><path d="M151.386,339.488l15.574,78.109c0.366,1.839 1.06,3.513 2.014,4.864c0.954,1.351 2.137,2.333 3.436,2.852l55.168,22.049l-55.168,22.049c-1.299,0.519 -2.482,1.501 -3.436,2.852c-0.954,1.351 -1.648,3.026 -2.014,4.864l-15.574,78.11l-15.573,-78.11c-0.367,-1.838 -1.06,-3.513 -2.014,-4.864c-0.954,-1.351 -2.137,-2.333 -3.436,-2.852l-55.168,-22.049l55.168,-22.049c1.299,-0.519 2.482,-1.501 3.436,-2.852c0.954,-1.351 1.647,-3.025 2.014,-4.864l15.573,-78.109Z" style="fill:#fff;"/><path d="M388.09,475.577l8.014,40.193c0.189,0.947 0.545,1.808 1.036,2.503c0.491,0.696 1.1,1.201 1.768,1.468l28.389,11.346l-28.389,11.346c-0.668,0.267 -1.277,0.772 -1.768,1.468c-0.491,0.695 -0.847,1.556 -1.036,2.503l-8.014,40.193l-8.014,-40.193c-0.188,-0.947 -0.545,-1.808 -1.036,-2.503c-0.491,-0.696 -1.1,-1.201 -1.768,-1.468l-28.389,-11.346l28.389,-11.346c0.668,-0.267 1.277,-0.772 1.768,-1.468c0.491,-0.695 0.848,-1.556 1.036,-2.503l8.014,-40.193Z" style="fill:#fff;"/></g></g><defs><linearGradient id="_Linear2" x1="0" y1="0" x2="1" y2="0" gradientUnits="userSpaceOnUse" gradientTransform="matrix(-5.90195,155.361,-155.361,-5.90195,709.722,863.766)"><stop offset="0" style="stop-color:#280f71;stop-opacity:1"/><stop offset="1" style="stop-color:#5336aa;stop-opacity:1"/></linearGradient><linearGradient id="_Linear3" x1="0" y1="0" x2="1" y2="0" gradientUnits="userSpaceOnUse" gradientTransform="matrix(6.76854e-14,1105.39,-1105.39,6.76854e-14,994.983,-50.1902)"><stop offset="0" style="stop-color:#5336aa;stop-opacity:1"/><stop offset="0.51" style="stop-color:#331980;stop-opacity:1"/><stop offset="1" style="stop-color:#280f71;stop-opacity:1"/></linearGradient></defs></svg>