<?xml version="1.0" encoding="UTF-8" standalone="no"?><!DOCTYPE svg PUBLIC "-//W3C//DTD SVG 1.1//EN" "http://www.w3.org/Graphics/SVG/1.1/DTD/svg11.dtd"><svg width="100%" height="100%" viewBox="0 0 4202 2542" version="1.1" xmlns="http://www.w3.org/2000/svg" xmlns:xlink="http://www.w3.org/1999/xlink" xml:space="preserve" xmlns:serif="http://www.serif.com/" style="fill-rule:evenodd;clip-rule:evenodd;stroke-linecap:round;stroke-linejoin:round;stroke-miterlimit:1.5;"><rect x="0" y="-0" width="4201.51" height="2541.25" style="fill:none;"/><clipPath id="_clip1"><rect x="0" y="-0" width="4201.51" height="2541.25"/></clipPath><g clip-path="url(#_clip1)"><g><path d="M1007.02,741.642c-21.971,100.413 -179.198,112.965 -192.965,69.978c-13.766,-42.986 20.143,-131.77 163.128,-136.598l60.605,-297.609l-321.356,71.159l-80.911,369.79c-21.971,100.413 -179.199,112.964 -192.965,69.978c-13.767,-42.987 20.142,-131.771 163.128,-136.598l98.024,-447.996l413.167,-87.436l-109.855,525.332Z" style="fill:#6b4dc4;"/><path d="M1436.49,960.515l-1111.68,555.235l1418.19,815.306l1111.68,-555.235l-1418.19,-815.306Z" style="fill:none;stroke:#6b4dc4;stroke-width:20.83px;"/><path d="M1436.49,960.515l-1111.68,555.235l179.731,103.325l1111.68,-555.235l-179.73,-103.325Z" style="fill:#6b4dc4;"/><path d="M1283.01,1461.86c195.865,-97.655 521.932,-80.881 727.69,37.435c205.758,118.317 213.79,293.658 17.925,391.312c-195.865,97.655 -521.932,80.881 -727.69,-37.435c-205.759,-118.317 -213.79,-293.658 -17.925,-391.312Z" style="fill:none;stroke:#beb1e5;stroke-width:20.83px;"/><g transform="matrix(0.715719,-0.356845,0.832367,0.478632,-1139.39,1927.55)"><text x="2056.95px" y="741.788px" style="font-family:'Raleway-Bold', 'Raleway';font-weight:700;font-size:93.779px;fill:#5336aa;">Gr<tspan x="2160.95px 2214.78px 2267.2px " y="741.788px 741.788px 741.788px ">ace</tspan></text><g transform="matrix(93.7794,0,0,93.7794,2816.09,741.788)"></g><text x="2347.29px" y="741.788px" style="font-family:'Raleway-Regular', 'Raleway';font-size:93.779px;fill:#5336aa;">- F<tspan x="2462.92px " y="741.788px ">u</tspan>jii Kaz<tspan x="2761.04px " y="741.788px ">e</tspan></text></g><path d="M1408.17,1528.19c128.981,-64.307 347.019,-51.354 486.6,28.909c139.58,80.262 148.186,197.635 19.206,261.942c-128.981,64.308 -347.019,51.354 -486.6,-28.908c-139.581,-80.263 -148.187,-197.635 -19.206,-261.943Z" style="fill:none;stroke:#beb1e5;stroke-width:20.83px;"/><path d="M1394.57,1034.14c16.069,-8.012 43.235,-6.398 60.625,3.602c17.39,10 18.462,24.623 2.393,32.635c-16.07,8.012 -43.235,6.398 -60.625,-3.602c-17.391,-10 -18.463,-24.623 -2.393,-32.635Z" style="fill:#f5625a;"/><path d="M1302.41,1080.83c16.07,-8.012 43.235,-6.399 60.626,3.601c17.39,10 18.462,24.623 2.392,32.635c-16.069,8.012 -43.234,6.399 -60.625,-3.601c-17.39,-10 -18.462,-24.623 -2.393,-32.635Z" style="fill:#ffe433;"/><path d="M1210.25,1127.53c16.07,-8.012 43.235,-6.398 60.625,3.602c17.391,10 18.463,24.623 2.393,32.635c-16.069,8.012 -43.235,6.398 -60.625,-3.602c-17.39,-10 -18.462,-24.623 -2.393,-32.635Z" style="fill:#f6f6f6;"/><path d="M2572.87,2095.86l39.359,4.472l-70.55,322.437c-19.158,87.555 -153.88,87.657 -165.527,48.549c-11.648,-39.108 17.696,-115.507 140.193,-109.755l56.525,-265.703Z" style="fill:#6b4dc4;"/><path d="M2005.35,38.354c65.796,0 119.214,37.96 119.214,84.716c-0,46.756 -53.418,84.716 -119.214,84.716c-65.796,0 -119.214,-37.96 -119.214,-84.716c0,-46.756 53.418,-84.716 119.214,-84.716Zm-19.1,13.432c-29.446,7.89 -44.793,46.237 -34.251,85.58c10.542,39.343 43.006,64.879 72.452,56.989c29.445,-7.89 44.792,-46.237 34.25,-85.58c-10.542,-39.343 -43.006,-64.879 -72.451,-56.989Z" style="fill:#ff1ac6;"/><path d="M540.281,1995.52c-0,-11.986 -9.731,-21.717 -21.717,-21.717l-387.523,0c-11.986,0 -21.717,9.731 -21.717,21.717c0,11.985 9.731,21.716 21.717,21.716l387.523,-0c11.986,-0 21.717,-9.731 21.717,-21.716Z" style="fill:#ff1ac6;"/><path d="M324.802,1898.85c75.078,0 136.032,43.315 136.032,96.668c0,53.352 -60.954,96.667 -136.032,96.667c-75.078,-0 -136.031,-43.315 -136.031,-96.667c-0,-53.353 60.953,-96.668 136.031,-96.668Zm-21.795,15.327c-33.599,9.003 -51.111,52.759 -39.082,97.653c12.029,44.893 49.073,74.031 82.673,65.028c33.599,-9.003 51.111,-52.759 39.082,-97.653c-12.029,-44.893 -49.073,-74.031 -82.673,-65.028Z" style="fill:#ff1ac6;"/><path d="M1382.83,1470.81l11.158,6.417l-21.246,10.592l26.901,15.469l-10.794,5.382l-26.901,-15.469l-21.246,10.593l-11.158,-6.416l21.245,-10.593l-26.9,-15.469l10.794,-5.381l26.901,15.468l21.246,-10.593Z" style="fill:#745ac4;fill-rule:nonzero;"/><path d="M2001.31,1844.38l-12.554,-7.218l50.031,-24.945l12.554,7.219l-50.031,24.944Z" style="fill:#745ac4;fill-rule:nonzero;"/><path d="M1988.75,1517.54l-16.401,48.096l-11.154,-6.414l11.921,-37.08l-70.073,3.641l-10.856,-6.243l91.061,-5.164l5.502,3.164Z" style="fill:#745ac4;fill-rule:nonzero;"/><path d="M1335.84,1841.33l16.104,-48.266l10.857,6.243l-11.773,37.165l69.924,-3.727l11.154,6.414l-90.764,5.336l-5.502,-3.165Z" style="fill:#745ac4;fill-rule:nonzero;"/><g><path d="M2586.87,1745.89c-6.695,-3.85 -16.804,-4.645 -22.561,-1.775l-886.62,442.052c-5.757,2.871 -4.995,8.327 1.7,12.177c6.695,3.849 16.805,4.645 22.562,1.774l886.619,-442.052c5.757,-2.87 4.996,-8.326 -1.7,-12.176Z" style="fill:#beb1e5;"/><path d="M2180.99,1948.26c-6.695,-3.85 -16.804,-4.645 -22.561,-1.775l-480.736,239.686c-5.757,2.871 -4.995,8.327 1.7,12.177c6.695,3.849 16.805,4.645 22.562,1.774l480.735,-239.685c5.757,-2.871 4.996,-8.327 -1.7,-12.177Z" style="fill:#ff1ac6;"/></g><path d="M2519.61,504.098c332,-117.142 646.98,-179.309 833.482,-75.697c186.501,103.612 124.334,261.102 84.961,447.603c-39.372,186.501 86.528,554.177 763.454,222.271" style="fill:none;stroke:#2f167b;stroke-width:37.5px;"/><path d="M3136.2,509.302c-14.923,68.2 -119.862,68.279 -128.935,37.817c-9.073,-30.463 13.784,-89.973 109.201,-85.493l41.217,-202.379l-214.605,31.613l-54.954,251.158c-14.922,68.199 -119.862,68.279 -128.935,37.816c-9.073,-30.463 13.785,-89.972 109.202,-85.492l66.576,-304.274l275.906,-37.845l-74.673,357.079Z" style="fill:#6b4dc4;"/><path d="M2757.36,1143.71c256.801,-349.496 777.45,-606.553 901.784,-362.756c124.334,243.797 -95.841,452.647 -204.633,763.964c-108.793,311.318 210.469,629.681 746.999,252.186" style="fill:none;stroke:#2f167b;stroke-width:37.5px;"/><g><path d="M2144.78,652.201c-0,-0 -12.413,-23.899 -30.617,-70.048c159.109,-62.763 110.348,5.334 190.822,-26.41l198.974,-78.488l19.313,25.644l3.395,31.923l-198.973,78.488c-80.474,31.744 1.645,48.214 -157.465,110.977c-18.204,-46.149 -25.449,-72.086 -25.449,-72.086Z" style="fill:#5336aa;"/><path d="M1825.81,665.844c-4.525,-11.473 39.103,-39.447 97.367,-62.43c58.264,-22.983 109.241,-32.327 113.767,-20.854l12.003,30.43l-211.133,83.284l-12.004,-30.43Z" style="fill:#5336aa;"/><path d="M2115.72,579.772c17.616,-6.949 44.478,19.251 59.949,58.471c15.47,39.22 13.729,76.703 -3.886,83.652l-300.361,118.481l-56.063,-142.123l300.361,-118.481Z" style="fill:#745ac4;"/><path d="M1815.36,698.253c17.616,-6.948 44.478,19.252 59.949,58.472c15.47,39.22 13.729,76.703 -3.886,83.651c-17.616,6.949 -44.478,-19.251 -59.949,-58.471c-15.47,-39.22 -13.729,-76.703 3.886,-83.652Z" style="fill:#5336aa;"/><path d="M1889.89,832.721l24.628,62.434l211.133,-83.284l-24.628,-62.434l-211.133,83.284Z" style="fill:#5336aa;"/><path d="M2020.11,837.429c93.168,-36.751 163.186,-78.411 170.941,7.493c7.756,85.903 10.462,135.02 -97.464,177.593c-107.927,42.573 -139.481,4.836 -192.46,-63.229c-52.979,-68.064 25.815,-85.105 118.983,-121.857Z" style="fill:#745ac4;"/><path d="M2073.13,970.701c171.885,-67.803 196.004,4.803 193.631,87.858c-2.374,83.056 -20.401,108.416 -103.307,141.119c-82.906,32.704 -113.392,26.48 -171.828,-32.588c-58.437,-59.068 -90.381,-128.587 81.504,-196.389Z" style="fill:#beb1e5;"/></g><g><path d="M2531.53,1482.16c-0,0 -23.824,-12.557 -65.09,-40.092c94.933,-142.277 93.698,-58.531 141.713,-130.491l118.719,-177.924l30.488,10.057l20.989,24.291l-118.718,177.923c-48.016,71.961 28.84,38.672 -66.094,180.949c-41.267,-27.535 -62.007,-44.713 -62.007,-44.713Z" style="fill:#5336aa;"/><path d="M2277.25,1675.23c-10.259,-6.845 9.635,-54.701 44.399,-106.801c34.763,-52.1 71.316,-88.841 81.575,-81.995l27.211,18.156l-125.974,188.796l-27.211,-18.156Z" style="fill:#5336aa;"/><path d="M2466.36,1439.22c10.51,-15.752 47.516,-9.542 82.587,13.859c35.07,23.401 55.01,55.188 44.5,70.94l-179.212,268.584l-127.088,-84.799l179.213,-268.584Z" style="fill:#745ac4;"/><path d="M2287.15,1707.81c10.511,-15.752 47.517,-9.542 82.588,13.859c35.07,23.401 55.01,55.188 44.5,70.94c-10.511,15.752 -47.517,9.542 -82.588,-13.859c-35.07,-23.401 -55.01,-55.188 -44.5,-70.94Z" style="fill:#5336aa;"/><path d="M2425.04,1775.79l55.829,37.252l125.974,-188.797l-55.829,-37.251l-125.974,188.796Z" style="fill:#5336aa;"/><path d="M2534.71,1705.41c55.589,-83.311 89.361,-157.456 144.709,-91.303c55.348,66.152 85.574,104.961 21.179,201.469c-64.395,96.509 -111.834,83.496 -194.165,57.783c-82.33,-25.714 -27.312,-84.638 28.277,-167.949Z" style="fill:#745ac4;"/><path d="M2654.25,1784.67c102.556,-153.7 163.765,-107.802 209.168,-38.214c45.403,69.588 45.051,100.7 -4.415,174.835c-49.467,74.135 -78.06,86.403 -159.746,71.192c-81.685,-15.211 -147.564,-54.112 -45.007,-207.813Z" style="fill:#beb1e5;"/></g><path d="M1534.71,1633.56l-45.85,22.86l182.319,104.838l45.849,-22.86l-182.318,-104.838Z" style="fill:#beb1e5;"/><path d="M1646.03,1576.97l-45.849,22.859l182.318,104.838l45.849,-22.859l-182.318,-104.838Z" style="fill:#beb1e5;"/></g></g></svg>