<?xml version="1.0" encoding="UTF-8" standalone="no"?><!DOCTYPE svg PUBLIC "-//W3C//DTD SVG 1.1//EN" "http://www.w3.org/Graphics/SVG/1.1/DTD/svg11.dtd"><svg width="100%" height="100%" viewBox="0 0 2461 1781" version="1.1" xmlns="http://www.w3.org/2000/svg" xmlns:xlink="http://www.w3.org/1999/xlink" xml:space="preserve" xmlns:serif="http://www.serif.com/" style="fill-rule:evenodd;clip-rule:evenodd;stroke-linecap:round;stroke-linejoin:round;stroke-miterlimit:1.5;"><rect x="-0" y="0" width="2460.98" height="1780.11" style="fill:none;"/><g><g id="magazine"><rect x="170.035" y="267.603" width="2120.44" height="1368.03" style="fill:#5336aa;fill-rule:nonzero;"/><path d="M1401.26,130.8c-75.549,0 -136.803,61.253 -136.803,136.803l-68.401,-0c-0,-75.55 -61.253,-136.803 -136.802,-136.803l-752.414,0l0,1368.03l1846.83,-0l0,-1368.03l-752.413,0Z" style="fill:url(#_Linear1);fill-rule:nonzero;"/><path d="M1401.26,1498.83l-342.006,-0c75.549,-0 136.802,61.253 136.802,136.802l68.401,0c0,-75.549 61.254,-136.802 136.803,-136.802Z" style="fill:#ecf2f4;fill-rule:nonzero;"/><rect x="1401.26" y="746.411" width="273.605" height="273.605" style="fill:#ff1ac6;fill-rule:nonzero;"/><rect x="1743.26" y="746.411" width="273.605" height="273.605" style="fill:#ff1ac6;fill-rule:nonzero;"/><rect x="1401.26" y="1088.42" width="273.605" height="273.605" style="fill:#cccfff;fill-rule:nonzero;"/><rect x="1743.26" y="1088.42" width="273.605" height="273.605" style="fill:#ff1ac6;fill-rule:nonzero;"/><rect x="443.639" y="883.214" width="615.611" height="68.401" style="fill:#cccfff;fill-rule:nonzero;"/><rect x="443.639" y="1020.02" width="615.611" height="68.401" style="fill:#cccfff;fill-rule:nonzero;"/><rect x="443.639" y="1156.82" width="615.611" height="68.401" style="fill:#cccfff;fill-rule:nonzero;"/><rect x="443.639" y="1293.62" width="615.611" height="68.401" style="fill:#cccfff;fill-rule:nonzero;"/><rect x="1401.26" y="267.603" width="615.611" height="410.407" style="fill:#cccfff;fill-rule:nonzero;"/><rect x="443.639" y="267.603" width="615.611" height="547.21" style="fill:#ff1ac6;fill-rule:nonzero;"/><rect x="1196.05" y="267.603" width="68.401" height="1368.03" style="fill:#cccfff;fill-rule:nonzero;"/></g><path d="M167.105,0l24.745,124.106c0.582,2.921 1.684,5.582 3.2,7.729c1.516,2.146 3.395,3.706 5.458,4.531l87.657,35.033l-87.657,35.034c-2.063,0.824 -3.942,2.384 -5.458,4.531c-1.516,2.146 -2.618,4.807 -3.2,7.728l-24.745,124.107l-24.744,-124.107c-0.582,-2.921 -1.684,-5.582 -3.2,-7.728c-1.516,-2.147 -3.395,-3.707 -5.459,-4.531l-87.656,-35.034l87.656,-35.033c2.064,-0.825 3.943,-2.385 5.459,-4.531c1.516,-2.147 2.618,-4.808 3.2,-7.729l24.744,-124.106Z" style="fill:#ffe433;"/><path d="M382.363,298.478l19.254,96.569c0.453,2.273 1.31,4.344 2.49,6.014c1.179,1.67 2.642,2.884 4.247,3.526l68.207,27.26l-68.207,27.26c-1.605,0.642 -3.068,1.855 -4.247,3.526c-1.18,1.67 -2.037,3.74 -2.49,6.013l-19.254,96.569l-19.254,-96.569c-0.453,-2.273 -1.311,-4.343 -2.49,-6.013c-1.18,-1.671 -2.642,-2.884 -4.248,-3.526l-68.206,-27.26l68.206,-27.26c1.606,-0.642 3.068,-1.856 4.248,-3.526c1.179,-1.67 2.037,-3.741 2.49,-6.014l19.254,-96.569Z" style="fill:#ffe433;"/><g><path d="M1859.56,1471.71c83.622,22.406 133.321,108.488 110.914,192.109c-22.406,83.622 -108.487,133.321 -192.109,110.914c-83.621,-22.406 -133.32,-108.487 -110.914,-192.109c22.406,-83.621 108.488,-133.32 192.109,-110.914Z" style="fill:#999eff;"/><path d="M2032.9,1588.35l-357.219,-95.716c-0,-0 -1.13,-105.698 -58.429,-231.588c-57.299,-125.889 -91.494,-237.763 4.976,-438.241c169.039,-351.287 819.094,-168.966 791.878,212.184c-15.846,221.915 -102.244,301.642 -214.811,382.016c-112.567,80.373 -166.395,171.345 -166.395,171.345Z" style="fill:#ffe433;"/><clipPath id="_clip2"><path d="M2032.9,1588.35l-357.219,-95.716c-0,-0 -1.13,-105.698 -58.429,-231.588c-57.299,-125.889 -91.494,-237.763 4.976,-438.241c169.039,-351.287 819.094,-168.966 791.878,212.184c-15.846,221.915 -102.244,301.642 -214.811,382.016c-112.567,80.373 -166.395,171.345 -166.395,171.345Z"/></clipPath><g clip-path="url(#_clip2)"><path d="M1593.06,1204.14c239.796,359.915 770.123,227.622 805.612,-291.417c19.115,-279.568 98.958,427.261 98.958,427.261l-847.017,570.825c0,0 -35.264,-488.124 -57.553,-706.669Z" style="fill:#efd630;"/></g><path d="M2097.13,1621.21c6.132,-22.885 -7.469,-46.443 -30.354,-52.575l-410.245,-109.924c-22.884,-6.132 -46.442,7.469 -52.574,30.354c-6.132,22.885 7.469,46.442 30.354,52.574l410.244,109.925c22.885,6.132 46.443,-7.469 52.575,-30.354Z" style="fill:#fff;"/><path d="M2042.33,1683.08c4.429,-16.531 -5.396,-33.548 -21.927,-37.978l-361.952,-96.985c-16.531,-4.429 -33.548,5.396 -37.978,21.927c-4.429,16.531 5.395,33.548 21.926,37.977l361.953,96.985c16.531,4.43 33.548,-5.395 37.978,-21.926Z" style="fill:#cccfff;"/><path d="M1636.95,1040.32c19.602,-210.727 169.445,-422.603 475.439,-331.946c-184.438,45.598 -368.365,155.755 -475.439,331.946Z" style="fill:#fff746;"/><path d="M1816.57,1501.6c-0,-0 94.517,-359.208 9.388,-431.574c-85.129,-72.366 -136.714,91.998 37.169,108.952c120.215,11.722 248.623,-186.589 145.967,-214.096c-102.656,-27.506 -85.977,225.433 41.42,264.307c131.166,40.024 167.643,-109.249 73.405,-93.261c-127.573,21.644 -194.396,395.938 -194.396,395.938" style="fill:none;stroke:#fff;stroke-width:26.37px;"/></g><rect x="46.046" y="0" width="2368.89" height="1780.11" style="fill:none;"/></g><defs><linearGradient id="_Linear1" x1="0" y1="0" x2="1" y2="0" gradientUnits="userSpaceOnUse" gradientTransform="matrix(1.10004e-13,1796.5,-1796.5,1.10004e-13,1196.05,-622.844)"><stop offset="0" style="stop-color:#cccfff;stop-opacity:1"/><stop offset="0.52" style="stop-color:#f1f2ff;stop-opacity:1"/><stop offset="1" style="stop-color:#fff;stop-opacity:1"/></linearGradient></defs></svg>