<?xml version="1.0" encoding="UTF-8" standalone="no"?><!DOCTYPE svg PUBLIC "-//W3C//DTD SVG 1.1//EN" "http://www.w3.org/Graphics/SVG/1.1/DTD/svg11.dtd"><svg width="100%" height="100%" viewBox="0 0 2461 1781" version="1.1" xmlns="http://www.w3.org/2000/svg" xmlns:xlink="http://www.w3.org/1999/xlink" xml:space="preserve" xmlns:serif="http://www.serif.com/" style="fill-rule:evenodd;clip-rule:evenodd;stroke-linecap:round;stroke-linejoin:round;stroke-miterlimit:1.5;"><rect x="-0" y="0" width="2460.98" height="1780.11" style="fill:none;"/><g><path d="M121.22,1010.03l24.778,124.272c0.583,2.925 1.686,5.59 3.204,7.739c1.518,2.149 3.4,3.711 5.466,4.537l87.773,35.08l-87.773,35.08c-2.066,0.826 -3.948,2.388 -5.466,4.537c-1.518,2.149 -2.621,4.814 -3.204,7.739l-24.778,124.271l-24.777,-124.271c-0.583,-2.925 -1.686,-5.59 -3.204,-7.739c-1.518,-2.149 -3.4,-3.711 -5.466,-4.537l-87.773,-35.08l87.773,-35.08c2.066,-0.826 3.948,-2.388 5.466,-4.537c1.518,-2.149 2.621,-4.814 3.204,-7.739l24.777,-124.272Z" style="fill:#ffe433;"/><g><g><rect x="1148.1" y="1469.28" width="479.466" height="191.787" style="fill:url(#_Linear1);"/><path d="M1756.16,1720.35c-0,-32.743 -26.543,-59.286 -59.286,-59.286c-138.105,0 -479.98,0 -618.086,0c-32.742,0 -59.285,26.543 -59.285,59.286c-0,28.676 -0,56.977 -0,56.977l736.657,0c-0,0 -0,-28.301 -0,-56.977Z" style="fill:#6b4dc4;"/><path d="M2373.4,278.954c0,-70.271 -57.051,-127.322 -127.322,-127.322l-1748.46,-0c-70.271,-0 -127.322,57.051 -127.322,127.322l0,1134.03c0,70.271 57.051,127.323 127.322,127.323l1748.46,-0c70.271,-0 127.322,-57.052 127.322,-127.323l0,-1134.03Z" style="fill:url(#_Linear2);"/><clipPath id="_clip3"><path d="M2373.4,278.954c0,-70.271 -57.051,-127.322 -127.322,-127.322l-1748.46,-0c-70.271,-0 -127.322,57.051 -127.322,127.322l0,1134.03c0,70.271 57.051,127.323 127.322,127.323l1748.46,-0c70.271,-0 127.322,-57.052 127.322,-127.323l0,-1134.03Z"/></clipPath><g clip-path="url(#_clip3)"><rect x="334.778" y="1281.04" width="2088.79" height="259.267" style="fill:#6b4dc4;"/></g><path d="M2373.4,278.954l0,1134.03c0,70.271 -57.051,127.323 -127.322,127.323l-1748.46,-0c-70.271,-0 -127.322,-57.052 -127.322,-127.323l0,-1134.03c0,-70.271 57.051,-127.322 127.322,-127.322l1748.46,-0c70.271,-0 127.322,57.051 127.322,127.322Zm-93.558,0c-0,-18.635 -15.129,-33.764 -33.764,-33.764l-1748.46,0c-18.635,0 -33.764,15.129 -33.764,33.764l0,1134.03c0,18.635 15.129,33.764 33.764,33.764l1748.46,0c18.635,0 33.764,-15.129 33.764,-33.764l-0,-1134.03Z" style="fill:#6b4dc4;"/><g><path d="M1375.28,54.611c-4.702,-31.676 -34.236,-53.576 -65.912,-48.875l-271.846,40.348c-31.676,4.701 -53.577,34.235 -48.875,65.911l203.92,1373.94c4.701,31.676 34.235,53.576 65.912,48.875l271.846,-40.348c31.676,-4.701 53.576,-34.235 48.875,-65.911l-203.92,-1373.94Z" style="fill:#ebecff;"/><path d="M1376.53,63.036l-386.633,57.384l33.199,223.685l386.633,-57.384l-33.199,-223.685Z" style="fill:#fbb3aa;"/><path d="M1412.45,305.056l-386.633,57.384l33.199,223.685l386.633,-57.384l-33.199,-223.685Z" style="fill:#f78a84;"/><path d="M1448.37,547.076l-386.633,57.384l33.2,223.685l386.633,-57.384l-33.2,-223.685Z" style="fill:#f5625a;"/><path d="M1484.3,789.095l-386.633,57.385l33.199,223.684l386.633,-57.384l-33.199,-223.685Z" style="fill:#f43b30;"/><path d="M1520.21,1031.12l-386.633,57.384l33.2,223.685l386.633,-57.384l-33.2,-223.685Z" style="fill:#b62d25;"/><path d="M1371.99,1363.62c23.009,-3.415 44.463,12.493 47.878,35.503c3.415,23.01 -12.493,44.463 -35.503,47.878c-23.01,3.415 -44.463,-12.493 -47.878,-35.503c-3.415,-23.009 12.493,-44.463 35.503,-47.878Z" style="fill:#0b5587;"/></g><g><path d="M722.606,187.449c-19.91,-25.081 -56.437,-29.281 -81.519,-9.371l-215.252,170.865c-25.081,19.91 -29.28,56.437 -9.371,81.519l863.57,1087.91c19.91,25.082 56.437,29.281 81.519,9.371l215.252,-170.865c25.082,-19.909 29.281,-56.437 9.371,-81.519l-863.57,-1087.91Z" style="fill:#ebecff;"/><path d="M727.901,194.12l-306.141,243.013l140.593,177.117l306.142,-243.013l-140.594,-177.117Z" style="fill:#ffbcee;"/><path d="M880.019,385.755l-306.141,243.013l140.594,177.117l306.141,-243.013l-140.594,-177.117Z" style="fill:#ff9ae6;"/><path d="M1032.14,577.39l-306.142,243.013l140.594,177.117l306.141,-243.013l-140.593,-177.117Z" style="fill:#ff6ddb;"/><path d="M1184.26,769.025l-306.142,243.013l140.594,177.117l306.141,-243.013l-140.593,-177.117Z" style="fill:#ff1ac6;"/><path d="M1336.37,960.66l-306.142,243.013l140.594,177.117l306.141,-243.013l-140.593,-177.117Z" style="fill:#bd008e;"/><path d="M1374.26,1322.73c18.219,-14.463 44.752,-11.412 59.215,6.807c14.462,18.219 11.412,44.753 -6.808,59.215c-18.219,14.462 -44.752,11.412 -59.215,-6.807c-14.462,-18.22 -11.412,-44.753 6.808,-59.215Z" style="fill:#0b5587;"/></g><g><circle cx="1962.03" cy="1190.28" r="179.488" style="fill:#999eff;"/><path d="M2188.17,1088.38l-423.18,0c-0,0 -32.552,-116.492 -133.169,-238.667c-100.616,-122.175 -171.544,-235.702 -124.29,-485.859c82.8,-438.338 855.298,-429.342 938.099,-0c48.208,249.975 -23.675,363.684 -124.291,485.859c-100.616,122.175 -133.169,238.667 -133.169,238.667Z" style="fill:#ffe433;"/><clipPath id="_clip4"><path d="M2188.17,1088.38l-423.18,0c-0,0 -32.552,-116.492 -133.169,-238.667c-100.616,-122.175 -171.544,-235.702 -124.29,-485.859c82.8,-438.338 855.298,-429.342 938.099,-0c48.208,249.975 -23.675,363.684 -124.291,485.859c-100.616,122.175 -133.169,238.667 -133.169,238.667Z"/></clipPath><g clip-path="url(#_clip4)"><path d="M1588.23,793.968c371.637,326.794 918.625,23.508 804.13,-560.692c-61.669,-314.667 235.917,442.94 235.917,442.94l-767.145,881.784c-0,0 -183.542,-529.077 -272.902,-764.032Z" style="fill:#efd630;"/></g><path d="M2268.89,1105.67c0,-27.111 -22.01,-49.121 -49.121,-49.121l-485.996,-0c-27.11,-0 -49.121,22.01 -49.121,49.121c0,27.11 22.011,49.12 49.121,49.12l485.996,0c27.111,0 49.121,-22.01 49.121,-49.12Z" style="fill:#fff;"/><path d="M2226.65,1190.28c0,-19.583 -15.899,-35.483 -35.482,-35.483l-428.787,0c-19.584,0 -35.483,15.9 -35.483,35.483c-0,19.583 15.899,35.483 35.483,35.483l428.787,-0c19.583,-0 35.482,-15.9 35.482,-35.483Z" style="fill:#cccfff;"/><path d="M1588.23,599.899c-40.745,-238.721 62.127,-517.284 427.189,-507.705c-190.354,105.022 -361.023,281.251 -427.189,507.705Z" style="fill:#fff746;"/><path d="M1923.36,1056.55c-0,-0 -1.915,-425.023 -117.439,-479.797c-115.525,-54.773 -123.864,142.175 73.349,109.417c136.345,-22.648 219.541,-279.869 97.93,-279.869c-121.612,-0 -28.266,274.632 124.059,279.869c156.83,5.392 152.939,-170.402 53.513,-124.82c-134.595,61.705 -97.603,495.2 -97.603,495.2" style="fill:none;stroke:#fff;stroke-width:30.18px;"/></g><rect x="616.396" y="1281.04" width="1531.78" height="259.267" style="fill:#6b4dc4;"/></g><g><path d="M808.19,1616.71c-4.725,-21.55 -23.813,-36.907 -45.875,-36.907c-44.138,0 -116.726,0 -160.863,0c-22.063,0 -41.151,15.357 -45.876,36.907c-6.384,29.12 -15.401,70.247 -22.712,103.594c-3.046,13.892 0.367,28.416 9.282,39.497c8.915,11.081 22.371,17.526 36.593,17.526c58.44,0 147.849,0 206.288,0c14.223,0 27.679,-6.445 36.593,-17.526c8.915,-11.081 12.329,-25.605 9.283,-39.497c-7.312,-33.347 -16.329,-74.474 -22.713,-103.594Z" style="fill:#ff1ac6;"/><path d="M836.34,1566.51c-0,-16.914 -13.732,-30.646 -30.647,-30.646l-247.62,0c-16.914,0 -30.646,13.732 -30.646,30.646c-0,16.914 13.732,30.647 30.646,30.647l247.62,-0c16.915,-0 30.647,-13.733 30.647,-30.647Z" style="fill:#ffe433;"/><path d="M697.532,913.432l210.643,356.773l-138.057,265.663l-176.47,0l-138.057,-265.663l210.629,-356.749c-0.026,89.676 -0.102,227.806 -0.318,283.652c-0,13.161 -6.889,25.362 -18.158,32.161c-19.828,11.709 -33.14,33.299 -33.14,57.974c0,37.132 30.147,67.279 67.279,67.279c37.132,-0 67.279,-30.147 67.279,-67.279c-0,-24.675 -13.312,-46.265 -33.306,-57.699c-11.368,-6.855 -18.319,-19.161 -18.324,-32.436l0,-283.676Z" style="fill:#ebecff;"/><clipPath id="_clip5"><path d="M697.532,913.432l210.643,356.773l-138.057,265.663l-176.47,0l-138.057,-265.663l210.629,-356.749c-0.026,89.676 -0.102,227.806 -0.318,283.652c-0,13.161 -6.889,25.362 -18.158,32.161c-19.828,11.709 -33.14,33.299 -33.14,57.974c0,37.132 30.147,67.279 67.279,67.279c37.132,-0 67.279,-30.147 67.279,-67.279c-0,-24.675 -13.312,-46.265 -33.306,-57.699c-11.368,-6.855 -18.319,-19.161 -18.324,-32.436l0,-283.676Z"/></clipPath><g clip-path="url(#_clip5)"><circle cx="581.519" cy="1164.02" r="294.79" style="fill:#fff;"/></g></g><path d="M526.691,565.719l25.099,125.886c0.59,2.963 1.708,5.662 3.246,7.839c1.537,2.177 3.444,3.759 5.537,4.596l88.913,35.536l-88.913,35.535c-2.093,0.837 -4,2.419 -5.537,4.596c-1.538,2.178 -2.656,4.877 -3.246,7.84l-25.099,125.885l-25.099,-125.885c-0.591,-2.963 -1.709,-5.662 -3.246,-7.84c-1.538,-2.177 -3.445,-3.759 -5.537,-4.596l-88.913,-35.535l88.913,-35.536c2.092,-0.837 3.999,-2.419 5.537,-4.596c1.537,-2.177 2.655,-4.876 3.246,-7.839l25.099,-125.886Z" style="fill:#fff;"/><path d="M908.175,785.048l12.916,64.778c0.304,1.525 0.879,2.914 1.67,4.034c0.792,1.121 1.772,1.935 2.849,2.365l45.753,18.286l-45.753,18.286c-1.077,0.431 -2.057,1.245 -2.849,2.365c-0.791,1.121 -1.366,2.51 -1.67,4.034l-12.916,64.779l-12.915,-64.779c-0.304,-1.524 -0.879,-2.913 -1.67,-4.034c-0.792,-1.12 -1.773,-1.934 -2.85,-2.365l-45.752,-18.286l45.752,-18.286c1.077,-0.43 2.058,-1.244 2.85,-2.365c0.791,-1.12 1.366,-2.509 1.67,-4.034l12.915,-64.778Z" style="fill:#fff;"/></g><path d="M215.544,1455.57l19.279,96.698c0.454,2.276 1.313,4.349 2.494,6.022c1.181,1.672 2.646,2.888 4.253,3.53l68.298,27.296l-68.298,27.297c-1.607,0.642 -3.072,1.858 -4.253,3.53c-1.181,1.673 -2.04,3.746 -2.494,6.022l-19.279,96.697l-19.279,-96.697c-0.454,-2.276 -1.313,-4.349 -2.494,-6.022c-1.181,-1.672 -2.645,-2.888 -4.253,-3.53l-68.298,-27.297l68.298,-27.296c1.608,-0.642 3.072,-1.858 4.253,-3.53c1.181,-1.673 2.04,-3.746 2.494,-6.022l19.279,-96.698Z" style="fill:#ffe433;"/></g><defs><linearGradient id="_Linear1" x1="0" y1="0" x2="1" y2="0" gradientUnits="userSpaceOnUse" gradientTransform="matrix(-9.51191,250.388,-250.388,-9.51191,1426.53,1410.68)"><stop offset="0" style="stop-color:#280f71;stop-opacity:1"/><stop offset="1" style="stop-color:#5336aa;stop-opacity:1"/></linearGradient><linearGradient id="_Linear2" x1="0" y1="0" x2="1" y2="0" gradientUnits="userSpaceOnUse" gradientTransform="matrix(1.09086e-13,1781.5,-1781.5,1.09086e-13,1886.28,-62.307)"><stop offset="0" style="stop-color:#5336aa;stop-opacity:1"/><stop offset="0.51" style="stop-color:#331980;stop-opacity:1"/><stop offset="1" style="stop-color:#280f71;stop-opacity:1"/></linearGradient></defs></svg>